<svg xmlns="http://www.w3.org/2000/svg" width="920" height="420" viewBox="0 0 920 420" font-family="Segoe UI, Helvetica, sans-serif">
<rect width="920" height="420" fill="#ffffff"/>
<text x="56" y="26" font-size="15" font-weight="600" fill="#1a1a1a">Exp&#233;rience 13 &#8212; les &#233;v&#233;nements se groupent par mois</text>
<text x="56" y="46" font-size="11" fill="#666666">bras R et T2, sens bas, k = 3,0 &#183; 92 grappes pour R, 20 pour T2 &#8212; c'est T2 qui borne la puissance du test principal</text>
<line x1="56" y1="358.0" x2="898" y2="358.0" stroke="#ececec" stroke-width="1"/>
<text x="48" y="362.0" font-size="10.5" fill="#666666" text-anchor="end">0</text>
<line x1="56" y1="287.0" x2="898" y2="287.0" stroke="#ececec" stroke-width="1"/>
<text x="48" y="291.0" font-size="10.5" fill="#666666" text-anchor="end">50</text>
<line x1="56" y1="216.0" x2="898" y2="216.0" stroke="#ececec" stroke-width="1"/>
<text x="48" y="220.0" font-size="10.5" fill="#666666" text-anchor="end">100</text>
<line x1="56" y1="145.0" x2="898" y2="145.0" stroke="#ececec" stroke-width="1"/>
<text x="48" y="149.0" font-size="10.5" fill="#666666" text-anchor="end">150</text>
<line x1="56" y1="74.0" x2="898" y2="74.0" stroke="#ececec" stroke-width="1"/>
<text x="48" y="78.0" font-size="10.5" fill="#666666" text-anchor="end">200</text>
<text x="56.0" y="376.0" font-size="10.5" fill="#666666">2010</text>
<rect x="56.0" y="352.3" width="3.9" height="5.7" fill="#1f5f8b"/>
<rect x="65.1" y="329.6" width="3.9" height="28.4" fill="#1f5f8b"/>
<rect x="74.1" y="356.6" width="3.9" height="1.4" fill="#1f5f8b"/>
<rect x="83.2" y="348.1" width="3.9" height="9.9" fill="#1f5f8b"/>
<rect x="92.2" y="251.5" width="3.9" height="106.5" fill="#1f5f8b"/>
<rect x="101.3" y="345.2" width="3.9" height="12.8" fill="#1f5f8b"/>
<rect x="110.3" y="326.8" width="3.9" height="31.2" fill="#1f5f8b"/>
<rect x="119.4" y="311.1" width="3.9" height="46.9" fill="#1f5f8b"/>
<rect x="128.4" y="355.2" width="3.9" height="2.8" fill="#1f5f8b"/>
<rect x="137.5" y="342.4" width="3.9" height="15.6" fill="#1f5f8b"/>
<rect x="146.5" y="328.2" width="3.9" height="29.8" fill="#1f5f8b"/>
<rect x="155.6" y="345.2" width="3.9" height="12.8" fill="#1f5f8b"/>
<text x="164.6" y="376.0" font-size="10.5" fill="#666666">2011</text>
<rect x="164.6" y="349.5" width="3.9" height="8.5" fill="#1f5f8b"/>
<rect x="173.7" y="342.4" width="3.9" height="15.6" fill="#1f5f8b"/>
<rect x="182.8" y="289.8" width="3.9" height="68.2" fill="#1f5f8b"/>
<rect x="191.8" y="355.2" width="3.9" height="2.8" fill="#1f5f8b"/>
<rect x="200.9" y="349.5" width="3.9" height="8.5" fill="#1f5f8b"/>
<rect x="209.9" y="325.3" width="3.9" height="32.7" fill="#1f5f8b"/>
<rect x="219.0" y="271.4" width="3.9" height="86.6" fill="#1f5f8b"/>
<rect x="223.5" y="323.9" width="3.9" height="34.1" fill="#b35c1e"/>
<rect x="228.0" y="132.2" width="3.9" height="225.8" fill="#1f5f8b"/>
<rect x="232.5" y="74.0" width="3.9" height="284.0" fill="#b35c1e"/>
<rect x="237.1" y="299.8" width="3.9" height="58.2" fill="#1f5f8b"/>
<rect x="241.6" y="356.6" width="3.9" height="1.4" fill="#b35c1e"/>
<rect x="246.1" y="333.9" width="3.9" height="24.1" fill="#1f5f8b"/>
<rect x="255.2" y="350.9" width="3.9" height="7.1" fill="#1f5f8b"/>
<rect x="259.7" y="336.7" width="3.9" height="21.3" fill="#b35c1e"/>
<rect x="264.2" y="356.6" width="3.9" height="1.4" fill="#1f5f8b"/>
<rect x="273.3" y="356.6" width="3.9" height="1.4" fill="#1f5f8b"/>
<rect x="286.9" y="356.6" width="3.9" height="1.4" fill="#b35c1e"/>
<rect x="291.4" y="348.1" width="3.9" height="9.9" fill="#1f5f8b"/>
<rect x="300.5" y="342.4" width="3.9" height="15.6" fill="#1f5f8b"/>
<rect x="309.5" y="353.7" width="3.9" height="4.3" fill="#1f5f8b"/>
<text x="318.6" y="376.0" font-size="10.5" fill="#666666">2013</text>
<rect x="318.6" y="356.6" width="3.9" height="1.4" fill="#1f5f8b"/>
<rect x="327.6" y="345.2" width="3.9" height="12.8" fill="#1f5f8b"/>
<rect x="336.7" y="326.8" width="3.9" height="31.2" fill="#1f5f8b"/>
<rect x="345.7" y="355.2" width="3.9" height="2.8" fill="#1f5f8b"/>
<rect x="354.8" y="318.2" width="3.9" height="39.8" fill="#1f5f8b"/>
<rect x="363.8" y="355.2" width="3.9" height="2.8" fill="#1f5f8b"/>
<rect x="372.9" y="332.4" width="3.9" height="25.6" fill="#1f5f8b"/>
<rect x="381.9" y="349.5" width="3.9" height="8.5" fill="#1f5f8b"/>
<rect x="391.0" y="329.6" width="3.9" height="28.4" fill="#1f5f8b"/>
<rect x="400.0" y="343.8" width="3.9" height="14.2" fill="#1f5f8b"/>
<rect x="409.1" y="306.9" width="3.9" height="51.1" fill="#1f5f8b"/>
<text x="418.2" y="376.0" font-size="10.5" fill="#666666">2014</text>
<rect x="418.2" y="319.7" width="3.9" height="38.3" fill="#1f5f8b"/>
<rect x="427.2" y="345.2" width="3.9" height="12.8" fill="#1f5f8b"/>
<rect x="431.7" y="350.9" width="3.9" height="7.1" fill="#b35c1e"/>
<rect x="436.3" y="311.1" width="3.9" height="46.9" fill="#1f5f8b"/>
<rect x="445.3" y="328.2" width="3.9" height="29.8" fill="#1f5f8b"/>
<rect x="454.4" y="332.4" width="3.9" height="25.6" fill="#1f5f8b"/>
<rect x="463.4" y="332.4" width="3.9" height="25.6" fill="#1f5f8b"/>
<rect x="472.5" y="284.2" width="3.9" height="73.8" fill="#1f5f8b"/>
<rect x="481.5" y="306.9" width="3.9" height="51.1" fill="#1f5f8b"/>
<rect x="490.6" y="331.0" width="3.9" height="27.0" fill="#1f5f8b"/>
<rect x="499.6" y="250.1" width="3.9" height="107.9" fill="#1f5f8b"/>
<rect x="504.2" y="326.8" width="3.9" height="31.2" fill="#b35c1e"/>
<rect x="508.7" y="350.9" width="3.9" height="7.1" fill="#1f5f8b"/>
<rect x="517.7" y="339.5" width="3.9" height="18.5" fill="#1f5f8b"/>
<rect x="522.3" y="348.1" width="3.9" height="9.9" fill="#b35c1e"/>
<text x="526.8" y="376.0" font-size="10.5" fill="#666666">2015</text>
<rect x="526.8" y="352.3" width="3.9" height="5.7" fill="#1f5f8b"/>
<rect x="535.8" y="356.6" width="3.9" height="1.4" fill="#1f5f8b"/>
<rect x="544.9" y="349.5" width="3.9" height="8.5" fill="#1f5f8b"/>
<rect x="554.0" y="332.4" width="3.9" height="25.6" fill="#1f5f8b"/>
<rect x="563.0" y="240.1" width="3.9" height="117.9" fill="#1f5f8b"/>
<rect x="567.5" y="332.4" width="3.9" height="25.6" fill="#b35c1e"/>
<rect x="572.1" y="265.7" width="3.9" height="92.3" fill="#1f5f8b"/>
<rect x="576.6" y="277.1" width="3.9" height="80.9" fill="#b35c1e"/>
<rect x="581.1" y="352.3" width="3.9" height="5.7" fill="#1f5f8b"/>
<rect x="590.2" y="339.5" width="3.9" height="18.5" fill="#1f5f8b"/>
<rect x="599.2" y="321.1" width="3.9" height="36.9" fill="#1f5f8b"/>
<rect x="603.8" y="352.3" width="3.9" height="5.7" fill="#b35c1e"/>
<text x="608.3" y="376.0" font-size="10.5" fill="#666666">2016</text>
<rect x="608.3" y="255.8" width="3.9" height="102.2" fill="#1f5f8b"/>
<rect x="617.3" y="285.6" width="3.9" height="72.4" fill="#1f5f8b"/>
<rect x="621.9" y="308.3" width="3.9" height="49.7" fill="#b35c1e"/>
<rect x="626.4" y="346.6" width="3.9" height="11.4" fill="#1f5f8b"/>
<rect x="635.4" y="352.3" width="3.9" height="5.7" fill="#1f5f8b"/>
<rect x="644.5" y="332.4" width="3.9" height="25.6" fill="#1f5f8b"/>
<rect x="649.0" y="339.5" width="3.9" height="18.5" fill="#b35c1e"/>
<rect x="653.5" y="352.3" width="3.9" height="5.7" fill="#1f5f8b"/>
<rect x="662.6" y="356.6" width="3.9" height="1.4" fill="#1f5f8b"/>
<rect x="671.7" y="355.2" width="3.9" height="2.8" fill="#1f5f8b"/>
<rect x="680.7" y="355.2" width="3.9" height="2.8" fill="#1f5f8b"/>
<rect x="689.8" y="301.2" width="3.9" height="56.8" fill="#1f5f8b"/>
<text x="698.8" y="376.0" font-size="10.5" fill="#666666">2017</text>
<rect x="698.8" y="350.9" width="3.9" height="7.1" fill="#1f5f8b"/>
<rect x="707.9" y="356.6" width="3.9" height="1.4" fill="#1f5f8b"/>
<rect x="716.9" y="356.6" width="3.9" height="1.4" fill="#1f5f8b"/>
<rect x="726.0" y="349.5" width="3.9" height="8.5" fill="#1f5f8b"/>
<rect x="735.0" y="356.6" width="3.9" height="1.4" fill="#1f5f8b"/>
<rect x="744.1" y="342.4" width="3.9" height="15.6" fill="#1f5f8b"/>
<rect x="753.1" y="311.1" width="3.9" height="46.9" fill="#1f5f8b"/>
<rect x="757.7" y="348.1" width="3.9" height="9.9" fill="#b35c1e"/>
<rect x="762.2" y="309.7" width="3.9" height="48.3" fill="#1f5f8b"/>
<rect x="766.7" y="355.2" width="3.9" height="2.8" fill="#b35c1e"/>
<rect x="771.2" y="345.2" width="3.9" height="12.8" fill="#1f5f8b"/>
<rect x="775.8" y="350.9" width="3.9" height="7.1" fill="#b35c1e"/>
<rect x="780.3" y="336.7" width="3.9" height="21.3" fill="#1f5f8b"/>
<rect x="789.4" y="279.9" width="3.9" height="78.1" fill="#1f5f8b"/>
<rect x="793.9" y="356.6" width="3.9" height="1.4" fill="#b35c1e"/>
<rect x="798.4" y="333.9" width="3.9" height="24.1" fill="#1f5f8b"/>
<text x="807.5" y="376.0" font-size="10.5" fill="#666666">2018</text>
<rect x="807.5" y="341.0" width="3.9" height="17.0" fill="#1f5f8b"/>
<rect x="816.5" y="261.4" width="3.9" height="96.6" fill="#1f5f8b"/>
<rect x="821.0" y="350.9" width="3.9" height="7.1" fill="#b35c1e"/>
<rect x="825.6" y="294.1" width="3.9" height="63.9" fill="#1f5f8b"/>
<rect x="830.1" y="323.9" width="3.9" height="34.1" fill="#b35c1e"/>
<rect x="834.6" y="343.8" width="3.9" height="14.2" fill="#1f5f8b"/>
<rect x="843.7" y="346.6" width="3.9" height="11.4" fill="#1f5f8b"/>
<rect x="852.7" y="311.1" width="3.9" height="46.9" fill="#1f5f8b"/>
<rect x="861.8" y="335.3" width="3.9" height="22.7" fill="#1f5f8b"/>
<rect x="870.8" y="338.1" width="3.9" height="19.9" fill="#1f5f8b"/>
<rect x="875.4" y="332.4" width="3.9" height="25.6" fill="#b35c1e"/>
<rect x="879.9" y="311.1" width="3.9" height="46.9" fill="#1f5f8b"/>
<rect x="888.9" y="355.2" width="3.9" height="2.8" fill="#1f5f8b"/>
<rect x="56" y="390" width="14" height="10" fill="#1f5f8b"/>
<text x="76" y="399" font-size="10.5" fill="#444444">R, bas, k = 3,0 &#8212; 92 mois occup&#233;s</text>
<rect x="356" y="390" width="14" height="10" fill="#b35c1e"/>
<text x="376" y="399" font-size="10.5" fill="#444444">T2, bas, k = 3,0 &#8212; 20 mois occup&#233;s</text>
</svg>
