<svg xmlns="http://www.w3.org/2000/svg" viewBox="0 0 1200 700" width="1200" height="700" font-family="ui-monospace,Consolas,monospace">
<rect width="1200" height="700" fill="#fcfcfb"/>
<text x="62" y="34" font-size="19" font-weight="600" fill="#0b0b0b" font-family="Georgia,serif">TEP.PA — les cinq critères au 2022-11-30</text>
<text x="62" y="54" font-size="12" fill="#52514e">1007 séances · 2019-01-02 → 2022-11-30 · fenêtre active 2022-06-16 → 2022-11-30 · ε = 7,25 €</text>
<rect x="980.7" y="74" width="123.3" height="340" fill="#f2efe4"/>
<line x1="62" y1="414.0" x2="1104" y2="414.0" stroke="#e1e0d9" stroke-width="1"/>
<text x="52" y="418.0" text-anchor="end" font-size="11" fill="#52514e">100</text>
<line x1="62" y1="385.7" x2="1104" y2="385.7" stroke="#e1e0d9" stroke-width="1"/>
<text x="52" y="389.7" text-anchor="end" font-size="11" fill="#52514e">120</text>
<line x1="62" y1="357.3" x2="1104" y2="357.3" stroke="#e1e0d9" stroke-width="1"/>
<text x="52" y="361.3" text-anchor="end" font-size="11" fill="#52514e">140</text>
<line x1="62" y1="329.0" x2="1104" y2="329.0" stroke="#e1e0d9" stroke-width="1"/>
<text x="52" y="333.0" text-anchor="end" font-size="11" fill="#52514e">160</text>
<line x1="62" y1="300.7" x2="1104" y2="300.7" stroke="#e1e0d9" stroke-width="1"/>
<text x="52" y="304.7" text-anchor="end" font-size="11" fill="#52514e">180</text>
<line x1="62" y1="272.3" x2="1104" y2="272.3" stroke="#e1e0d9" stroke-width="1"/>
<text x="52" y="276.3" text-anchor="end" font-size="11" fill="#52514e">200</text>
<line x1="62" y1="244.0" x2="1104" y2="244.0" stroke="#e1e0d9" stroke-width="1"/>
<text x="52" y="248.0" text-anchor="end" font-size="11" fill="#52514e">220</text>
<line x1="62" y1="215.7" x2="1104" y2="215.7" stroke="#e1e0d9" stroke-width="1"/>
<text x="52" y="219.7" text-anchor="end" font-size="11" fill="#52514e">240</text>
<line x1="62" y1="187.3" x2="1104" y2="187.3" stroke="#e1e0d9" stroke-width="1"/>
<text x="52" y="191.3" text-anchor="end" font-size="11" fill="#52514e">260</text>
<line x1="62" y1="159.0" x2="1104" y2="159.0" stroke="#e1e0d9" stroke-width="1"/>
<text x="52" y="163.0" text-anchor="end" font-size="11" fill="#52514e">280</text>
<line x1="62" y1="130.7" x2="1104" y2="130.7" stroke="#e1e0d9" stroke-width="1"/>
<text x="52" y="134.7" text-anchor="end" font-size="11" fill="#52514e">300</text>
<line x1="62" y1="102.3" x2="1104" y2="102.3" stroke="#e1e0d9" stroke-width="1"/>
<text x="52" y="106.3" text-anchor="end" font-size="11" fill="#52514e">320</text>
<line x1="62" y1="74.0" x2="1104" y2="74.0" stroke="#e1e0d9" stroke-width="1"/>
<text x="52" y="78.0" text-anchor="end" font-size="11" fill="#52514e">340</text>
<line x1="327.2" y1="74" x2="327.2" y2="414" stroke="#e1e0d9" stroke-width="1"/>
<text x="327.2" y="434" text-anchor="middle" font-size="11" fill="#52514e">2020</text>
<line x1="593.4" y1="74" x2="593.4" y2="414" stroke="#e1e0d9" stroke-width="1"/>
<text x="593.4" y="434" text-anchor="middle" font-size="11" fill="#52514e">2021</text>
<line x1="860.6" y1="74" x2="860.6" y2="414" stroke="#e1e0d9" stroke-width="1"/>
<text x="860.6" y="434" text-anchor="middle" font-size="11" fill="#52514e">2022</text>
<line x1="62" y1="414" x2="1104" y2="414" stroke="#c3c2b7" stroke-width="1"/>
<text x="986.7" y="90" font-size="11" fill="#52514e">fenêtre active · 120 séances</text>
<path d="M62.0 395.9L63.0 401.3L64.1 395.2L65.1 393.7L66.1 388.7L67.2 388.5L68.2 389.9L69.3 392.7L70.3 398.7L71.3 397.8L72.4 393.8L73.4 391.0L74.4 386.1L75.5 386.8L76.5 389.2L77.5 387.6L78.6 383.6L79.6 381.0L80.6 383.0L81.7 384.6L82.7 384.8L83.8 382.3L84.8 379.3L85.8 380.7L86.9 374.2L87.9 377.7L88.9 382.4L90.0 383.1L91.0 379.1L92.0 379.2L93.1 376.0L94.1 378.5L95.1 376.2L96.2 375.3L97.2 377.9L98.3 379.1L99.3 379.4L100.3 378.4L101.4 375.9L102.4 375.9L103.4 377.9L104.5 374.6L105.5 365.4L106.5 368.2L107.6 369.4L108.6 370.5L109.6 371.8L110.7 373.5L111.7 371.0L112.8 370.5L113.8 370.9L114.8 370.4L115.9 371.8L116.9 372.0L117.9 370.5L119.0 368.0L120.0 366.5L121.0 368.8L122.1 372.3L123.1 368.8L124.1 372.5L125.2 373.1L126.2 370.9L127.3 365.4L128.3 364.7L129.3 363.5L130.4 364.5L131.4 364.5L132.4 364.8L133.5 365.4L134.5 363.7L135.5 361.0L136.6 356.5L137.6 358.1L138.6 360.4L139.7 362.8L140.7 362.4L141.8 359.5L142.8 357.5L143.8 358.9L144.9 358.6L145.9 356.7L146.9 358.1L148.0 359.9L149.0 362.2L150.0 361.3L151.1 361.9L152.1 361.0L153.1 365.4L154.2 366.4L155.2 368.4L156.3 361.5L157.3 360.4L158.3 356.1L159.4 358.1L160.4 361.0L161.4 358.5L162.5 352.2L163.5 355.1L164.5 353.9L165.6 352.0L166.6 349.0L167.7 356.1L168.7 353.9L169.7 355.0L170.8 355.5L171.8 356.7L172.8 351.8L173.9 352.0L174.9 350.5L175.9 350.3L177.0 350.3L178.0 351.3L179.0 352.2L180.1 352.7L181.1 352.9L182.2 346.9L183.2 349.1L184.2 347.3L185.3 352.2L186.3 353.6L187.3 353.9L188.4 353.1L189.4 351.8L190.4 350.1L191.5 349.5L192.5 347.8L193.5 347.7L194.6 348.1L195.6 351.7L196.7 352.2L197.7 353.4L198.7 352.4L199.8 354.5L200.8 354.0L201.8 351.7L202.9 348.2L203.9 346.2L204.9 349.4L206.0 347.0L207.0 345.2L208.0 343.1L209.1 344.2L210.1 345.6L211.2 324.0L212.2 333.7L213.2 335.9L214.3 334.4L215.3 328.4L216.3 336.1L217.4 341.0L218.4 342.7L219.4 338.3L220.5 334.5L221.5 336.4L222.5 335.7L223.6 334.9L224.6 335.8L225.7 339.4L226.7 335.7L227.7 329.6L228.8 332.1L229.8 326.5L230.8 329.4L231.9 332.0L232.9 332.7L233.9 328.5L235.0 330.0L236.0 327.8L237.0 323.9L238.1 322.5L239.1 325.9L240.2 319.5L241.2 323.2L242.2 322.8L243.3 331.6L244.3 337.0L245.3 335.1L246.4 329.6L247.4 332.7L248.4 332.9L249.5 328.6L250.5 328.0L251.5 323.5L252.6 325.8L253.6 326.8L254.7 322.4L255.7 326.4L256.7 325.2L257.8 325.8L258.8 323.6L259.8 323.5L260.9 332.7L261.9 329.9L262.9 326.6L264.0 326.8L265.0 328.5L266.0 326.3L267.1 328.5L268.1 328.7L269.2 329.2L270.2 328.6L271.2 332.4L272.3 325.6L273.3 321.1L274.3 325.6L275.4 322.1L276.4 319.7L277.4 320.9L278.5 320.7L279.5 317.4L280.6 319.7L281.6 317.6L282.6 318.6L283.7 318.8L284.7 317.6L285.7 308.5L286.8 305.7L287.8 310.6L288.8 309.4L289.9 310.4L290.9 310.4L291.9 308.3L293.0 310.8L294.0 308.7L295.1 308.5L296.1 307.1L297.1 307.6L298.2 307.6L299.2 305.7L300.2 305.2L301.3 303.1L302.3 301.5L303.3 303.4L304.4 304.8L305.4 309.7L306.4 309.4L307.5 308.3L308.5 308.7L309.6 306.2L310.6 307.8L311.6 307.3L312.7 308.7L313.7 311.8L314.7 310.4L315.8 304.1L316.8 300.3L317.8 304.5L318.9 303.8L319.9 302.2L320.9 300.6L322.0 300.6L323.0 300.6L324.1 301.0L325.1 302.9L326.1 302.0L327.2 300.6L328.2 300.3L329.2 301.3L330.3 300.6L331.3 296.1L332.3 293.6L333.4 296.8L334.4 296.1L335.4 297.8L336.5 293.6L337.5 291.9L338.6 291.0L339.6 289.4L340.6 291.0L341.7 285.6L342.7 289.6L343.7 284.9L344.8 286.8L345.8 287.3L346.8 284.9L347.9 284.0L348.9 291.0L349.9 284.5L351.0 284.0L352.0 281.7L353.1 277.9L354.1 278.4L355.1 280.5L356.2 276.1L357.2 278.9L358.2 274.4L359.3 273.7L360.3 270.2L361.3 270.7L362.4 270.7L363.4 274.4L364.4 275.6L365.5 280.3L366.5 284.7L367.6 282.4L368.6 288.7L369.6 299.2L370.7 290.3L371.7 284.2L372.7 280.0L373.8 283.3L374.8 292.9L375.8 312.7L376.9 312.7L377.9 320.2L379.0 351.7L380.0 352.2L381.0 367.6L382.1 370.0L383.1 364.4L384.1 352.3L385.2 350.4L386.2 374.4L387.2 350.6L388.3 370.0L389.3 357.3L390.3 347.4L391.4 345.9L392.4 334.2L393.5 341.9L394.5 349.1L395.5 356.1L396.6 345.7L397.6 341.6L398.6 330.0L399.7 318.0L400.7 318.8L401.7 329.3L402.8 335.0L403.8 325.3L404.8 328.5L405.9 334.5L406.9 335.7L408.0 324.5L409.0 334.5L410.0 333.0L411.1 332.9L412.1 313.5L413.1 317.0L414.2 321.1L415.2 312.8L416.2 302.3L417.3 294.6L418.3 293.0L419.3 299.5L420.4 300.1L421.4 306.9L422.5 308.9L423.5 307.5L424.5 294.4L425.6 303.7L426.6 299.9L427.6 297.9L428.7 292.4L429.7 291.5L430.7 290.5L431.8 299.9L432.8 293.7L433.8 307.0L434.9 297.9L435.9 294.4L437.0 290.1L438.0 288.0L439.0 291.4L440.1 301.4L441.1 303.1L442.1 304.3L443.2 310.3L444.2 312.5L445.2 308.7L446.3 301.0L447.3 301.3L448.3 300.9L449.4 304.4L450.4 302.2L451.5 297.9L452.5 306.9L453.5 298.8L454.6 293.9L455.6 293.2L456.6 292.1L457.7 293.8L458.7 288.6L459.7 286.1L460.8 284.6L461.8 291.5L462.8 291.0L463.9 292.0L464.9 289.9L466.0 285.4L467.0 290.5L468.0 286.7L469.1 281.1L470.1 282.5L471.1 272.1L472.2 273.8L473.2 274.8L474.2 269.6L475.3 275.4L476.3 273.5L477.3 274.2L478.4 275.9L479.4 260.4L480.5 264.0L481.5 254.4L482.5 256.5L483.6 249.1L484.6 251.0L485.6 248.5L486.7 248.9L487.7 246.6L488.7 242.3L489.8 242.5L490.8 249.2L491.9 246.6L492.9 253.9L493.9 253.7L495.0 253.9L496.0 258.4L497.0 248.9L498.1 247.6L499.1 245.5L500.1 249.5L501.2 246.9L502.2 250.9L503.2 248.2L504.3 243.1L505.3 252.4L506.4 260.9L507.4 249.8L508.4 253.6L509.5 246.6L510.5 248.3L511.5 249.8L512.6 250.1L513.6 247.9L514.6 246.4L515.7 248.4L516.7 248.3L517.7 256.7L518.8 258.4L519.8 256.9L520.9 248.4L521.9 246.7L522.9 243.1L524.0 242.9L525.0 244.7L526.0 237.8L527.1 239.2L528.1 236.5L529.1 236.3L530.2 240.1L531.2 243.7L532.2 236.8L533.3 228.9L534.3 231.7L535.4 231.9L536.4 237.4L537.4 231.8L538.5 232.2L539.5 238.3L540.5 241.3L541.6 243.9L542.6 244.9L543.6 251.8L544.7 255.2L545.7 253.7L546.7 249.6L547.8 251.7L548.8 243.1L549.9 238.1L550.9 217.6L551.9 214.7L553.0 211.1L554.0 228.3L555.0 237.8L556.1 227.5L557.1 227.9L558.1 228.6L559.2 237.1L560.2 232.7L561.2 232.4L562.3 229.8L563.3 222.5L564.4 225.6L565.4 235.2L566.4 236.6L567.5 234.7L568.5 231.3L569.5 226.3L570.6 229.1L571.6 235.0L572.6 235.7L573.7 233.7L574.7 234.5L575.7 228.0L576.8 237.8L577.8 236.4L578.9 239.9L579.9 243.6L580.9 239.9L582.0 237.5L583.0 239.6L584.0 234.6L585.1 238.0L586.1 236.5L587.1 235.7L588.2 233.7L589.2 233.9L590.3 229.5L591.3 232.8L592.3 235.7L593.4 224.9L594.4 232.4L595.4 244.7L596.5 240.0L597.5 236.7L598.5 237.1L599.6 233.7L600.6 223.6L601.6 220.9L602.7 222.1L603.7 218.1L604.8 218.8L605.8 215.7L606.8 212.0L607.9 213.8L608.9 217.6L609.9 221.0L611.0 229.6L612.0 233.1L613.0 237.0L614.1 225.9L615.1 215.5L616.1 220.1L617.2 220.9L618.2 220.7L619.3 223.2L620.3 217.4L621.3 218.0L622.4 213.1L623.4 207.7L624.4 210.1L625.5 212.8L626.5 217.7L627.5 219.5L628.6 218.2L629.6 227.2L630.6 229.9L631.7 232.5L632.7 232.4L633.8 209.9L634.8 208.5L635.8 204.3L636.9 197.6L637.9 199.8L638.9 203.8L640.0 204.3L641.0 201.1L642.0 198.5L643.1 195.4L644.1 201.1L645.1 199.3L646.2 194.7L647.2 197.4L648.3 202.5L649.3 200.7L650.3 196.9L651.4 194.8L652.4 196.7L653.4 191.4L654.5 189.4L655.5 188.7L656.5 191.2L657.6 189.1L658.6 186.2L659.6 184.7L660.7 185.6L661.7 178.1L662.8 177.9L663.8 172.1L664.8 164.3L665.9 169.8L666.9 170.2L667.9 164.1L669.0 165.8L670.0 163.7L671.0 167.7L672.1 166.9L673.1 166.5L674.1 171.3L675.2 169.4L676.2 172.4L677.3 172.8L678.3 174.1L679.3 171.0L680.4 177.3L681.4 173.3L682.4 176.7L683.5 172.2L684.5 178.0L685.5 183.9L686.6 188.1L687.6 185.9L688.7 183.1L689.7 183.9L690.7 182.9L691.8 188.6L692.8 178.6L693.8 180.1L694.9 180.4L695.9 176.0L696.9 177.0L698.0 181.7L699.0 182.0L700.0 181.8L701.1 180.6L702.1 184.1L703.2 186.4L704.2 184.3L705.2 182.7L706.3 181.7L707.3 182.0L708.3 184.1L709.4 176.8L710.4 174.2L711.4 173.4L712.5 174.3L713.5 172.7L714.5 169.0L715.6 165.4L716.6 162.0L717.7 151.8L718.7 148.3L719.7 143.8L720.8 145.7L721.8 144.4L722.8 148.9L723.9 148.9L724.9 143.7L725.9 145.9L727.0 143.2L728.0 138.7L729.0 143.9L730.1 142.1L731.1 136.2L732.2 133.7L733.2 135.7L734.2 136.1L735.3 135.8L736.3 141.7L737.3 141.7L738.4 141.4L739.4 130.7L740.4 127.2L741.5 131.8L742.5 133.1L743.5 135.3L744.6 129.8L745.6 133.1L746.7 131.1L747.7 131.5L748.7 126.2L749.8 125.5L750.8 129.0L751.8 129.0L752.9 129.7L753.9 129.0L754.9 127.1L756.0 125.4L757.0 124.8L758.0 122.7L759.1 120.4L760.1 121.2L761.2 120.0L762.2 116.5L763.2 117.2L764.3 117.7L765.3 114.8L766.3 112.1L767.4 109.4L768.4 110.8L769.4 109.0L770.5 108.2L771.5 107.6L772.5 103.1L773.6 98.3L774.6 100.9L775.7 104.2L776.7 107.2L777.7 111.7L778.8 108.8L779.8 115.2L780.8 112.4L781.9 117.9L782.9 122.2L783.9 109.4L785.0 111.7L786.0 109.2L787.0 114.1L788.1 131.1L789.1 142.4L790.2 145.2L791.2 151.5L792.2 153.6L793.3 156.9L794.3 151.2L795.3 155.1L796.4 149.2L797.4 153.1L798.4 156.2L799.5 156.8L800.5 147.9L801.6 138.1L802.6 135.4L803.6 138.3L804.7 134.3L805.7 135.4L806.7 131.5L807.8 127.3L808.8 131.3L809.8 129.1L810.9 130.7L811.9 127.1L812.9 126.6L814.0 125.4L815.0 114.1L816.1 116.1L817.1 122.8L818.1 144.4L819.2 138.5L820.2 130.7L821.2 131.0L822.3 131.2L823.3 126.2L824.3 131.3L825.4 131.8L826.4 130.0L827.4 131.3L828.5 121.9L829.5 128.1L830.6 142.6L831.6 137.8L832.6 134.3L833.7 131.5L834.7 131.0L835.7 124.7L836.8 124.0L837.8 127.1L838.8 131.2L839.9 126.0L840.9 109.8L841.9 113.5L843.0 107.3L844.0 109.6L845.1 109.1L846.1 117.2L847.1 111.8L848.2 106.7L849.2 111.7L850.2 111.8L851.3 112.4L852.3 104.0L853.3 100.6L854.4 101.2L855.4 98.5L856.4 94.6L857.5 87.0L858.5 85.8L859.6 89.9L860.6 85.1L861.6 88.2L862.7 87.2L863.7 106.4L864.7 104.8L865.8 123.5L866.8 116.2L867.8 114.6L868.9 126.3L869.9 134.2L870.9 130.5L872.0 142.1L873.0 141.1L874.1 140.8L875.1 148.9L876.1 162.1L877.2 168.6L878.2 163.1L879.2 170.0L880.3 166.4L881.3 159.5L882.3 155.6L883.4 149.0L884.4 162.9L885.4 169.1L886.5 170.5L887.5 172.2L888.6 164.4L889.6 166.3L890.6 168.3L891.7 174.9L892.7 174.2L893.7 179.3L894.8 181.4L895.8 163.1L896.8 183.1L897.9 170.7L898.9 171.0L900.0 175.3L901.0 167.0L902.0 161.3L903.1 160.6L904.1 158.7L905.1 160.7L906.2 168.4L907.2 172.1L908.2 200.5L909.3 178.2L910.3 182.1L911.3 180.6L912.4 170.2L913.4 164.7L914.5 153.1L915.5 143.7L916.5 133.8L917.6 136.9L918.6 136.1L919.6 141.1L920.7 148.0L921.7 149.3L922.7 149.8L923.8 140.0L924.8 144.6L925.8 144.2L926.9 144.2L927.9 142.9L929.0 141.3L930.0 160.1L931.0 155.6L932.1 152.8L933.1 154.3L934.1 158.4L935.2 160.1L936.2 157.5L937.2 169.1L938.3 146.7L939.3 145.7L940.3 151.1L941.4 150.5L942.4 147.7L943.5 153.8L944.5 143.3L945.5 144.5L946.6 158.0L947.6 159.3L948.6 161.0L949.7 161.0L950.7 175.3L951.7 190.1L952.8 187.2L953.8 184.3L954.8 186.3L955.9 178.1L956.9 182.6L958.0 182.7L959.0 188.7L960.0 191.3L961.1 188.6L962.1 188.4L963.1 198.1L964.2 199.2L965.2 192.6L966.2 182.3L967.3 175.2L968.3 185.3L969.3 193.7L970.4 186.6L971.4 188.3L972.5 185.6L973.5 189.0L974.5 194.7L975.6 196.2L976.6 200.4L977.6 210.3L978.7 220.5L979.7 216.0L980.7 220.3L981.8 219.3L982.8 220.4L983.8 221.4L984.9 218.1L985.9 216.5L987.0 202.7L988.0 203.3L989.0 204.0L990.1 203.4L991.1 203.7L992.1 200.6L993.2 195.6L994.2 197.0L995.2 181.5L996.3 180.1L997.3 183.7L998.3 180.7L999.4 183.6L1000.4 181.9L1001.5 177.3L1002.5 174.5L1003.5 169.9L1004.6 168.6L1005.6 167.9L1006.6 158.3L1007.7 159.6L1008.7 164.7L1009.7 162.8L1010.8 158.4L1011.8 175.1L1012.9 164.1L1013.9 159.9L1014.9 163.2L1016.0 162.9L1017.0 160.3L1018.0 185.0L1019.1 178.2L1020.1 183.3L1021.1 181.2L1022.2 178.3L1023.2 177.9L1024.2 176.4L1025.3 183.2L1026.3 186.2L1027.4 180.2L1028.4 183.6L1029.4 189.9L1030.5 195.9L1031.5 195.1L1032.5 196.2L1033.6 208.9L1034.6 218.4L1035.6 212.4L1036.7 214.5L1037.7 216.1L1038.7 207.0L1039.8 211.5L1040.8 210.3L1041.9 210.2L1042.9 205.7L1043.9 200.3L1045.0 199.5L1046.0 207.5L1047.0 208.7L1048.1 209.1L1049.1 207.6L1050.1 215.6L1051.2 233.5L1052.2 224.4L1053.2 241.3L1054.3 243.7L1055.3 247.4L1056.4 246.6L1057.4 247.3L1058.4 256.2L1059.5 242.6L1060.5 243.9L1061.5 232.3L1062.6 235.2L1063.6 236.6L1064.6 249.2L1065.7 249.8L1066.7 252.2L1067.7 252.2L1068.8 251.7L1069.8 247.3L1070.9 239.7L1071.9 237.7L1072.9 238.8L1074.0 236.7L1075.0 239.7L1076.0 235.1L1077.1 225.9L1078.1 224.5L1079.1 228.6L1080.2 227.6L1081.2 230.1L1082.2 236.4L1083.3 233.9L1084.3 238.8L1085.4 228.1L1086.4 245.4L1087.4 239.0L1088.5 236.3L1089.5 344.5L1090.5 327.7L1091.6 312.4L1092.6 288.1L1093.6 293.0L1094.7 295.8L1095.7 286.3L1096.7 289.7L1097.8 298.3L1098.8 304.5L1099.9 300.1L1100.9 301.2L1101.9 296.9L1103.0 298.9L1104.0 297.2" fill="none" stroke="#2a78d6" stroke-width="1.4" stroke-linejoin="round"/>
<line x1="1017.0" y1="156.6" x2="1104.0" y2="244.7" stroke="#eb6834" stroke-width="2.2"/>
<circle cx="1006.6" cy="156.0" r="3" fill="#eb6834" stroke="#fcfcfb" stroke-width="1.5"/>
<circle cx="1007.7" cy="154.2" r="3" fill="#eb6834" stroke="#fcfcfb" stroke-width="1.5"/>
<circle cx="1008.7" cy="157.9" r="3" fill="#eb6834" stroke="#fcfcfb" stroke-width="1.5"/>
<circle cx="1010.8" cy="155.9" r="3" fill="#eb6834" stroke="#fcfcfb" stroke-width="1.5"/>
<circle cx="1011.8" cy="159.5" r="3" fill="#eb6834" stroke="#fcfcfb" stroke-width="1.5"/>
<circle cx="1013.9" cy="158.9" r="3" fill="#eb6834" stroke="#fcfcfb" stroke-width="1.5"/>
<circle cx="1014.9" cy="159.8" r="3" fill="#eb6834" stroke="#fcfcfb" stroke-width="1.5"/>
<circle cx="1016.0" cy="159.3" r="3" fill="#eb6834" stroke="#fcfcfb" stroke-width="1.5"/>
<circle cx="1017.0" cy="156.6" r="3" fill="#eb6834" stroke="#fcfcfb" stroke-width="1.5"/>
<circle cx="1018.0" cy="160.1" r="3" fill="#eb6834" stroke="#fcfcfb" stroke-width="1.5"/>
<circle cx="1024.2" cy="174.1" r="3" fill="#eb6834" stroke="#fcfcfb" stroke-width="1.5"/>
<circle cx="1028.4" cy="178.1" r="3" fill="#eb6834" stroke="#fcfcfb" stroke-width="1.5"/>
<circle cx="1046.0" cy="193.1" r="3" fill="#eb6834" stroke="#fcfcfb" stroke-width="1.5"/>
<circle cx="1077.1" cy="224.7" r="3" fill="#eb6834" stroke="#fcfcfb" stroke-width="1.5"/>
<circle cx="1078.1" cy="224.0" r="3" fill="#eb6834" stroke="#fcfcfb" stroke-width="1.5"/>
<circle cx="1079.1" cy="225.9" r="3" fill="#eb6834" stroke="#fcfcfb" stroke-width="1.5"/>
<circle cx="1080.2" cy="225.2" r="3" fill="#eb6834" stroke="#fcfcfb" stroke-width="1.5"/>
<circle cx="1081.2" cy="225.0" r="3" fill="#eb6834" stroke="#fcfcfb" stroke-width="1.5"/>
<circle cx="1082.2" cy="227.3" r="3" fill="#eb6834" stroke="#fcfcfb" stroke-width="1.5"/>
<circle cx="1083.3" cy="232.2" r="3" fill="#eb6834" stroke="#fcfcfb" stroke-width="1.5"/>
<circle cx="1085.4" cy="225.8" r="3" fill="#eb6834" stroke="#fcfcfb" stroke-width="1.5"/>
<circle cx="1086.4" cy="228.2" r="3" fill="#eb6834" stroke="#fcfcfb" stroke-width="1.5"/>
<circle cx="1087.4" cy="238.2" r="3" fill="#eb6834" stroke="#fcfcfb" stroke-width="1.5"/>
<circle cx="1088.5" cy="235.2" r="3" fill="#eb6834" stroke="#fcfcfb" stroke-width="1.5"/>
<text x="1112" y="248.7" font-size="12" font-weight="600" fill="#eb6834">219,51 €</text>
<line x1="984.9" y1="229.9" x2="1104.0" y2="376.5" stroke="#1baf7a" stroke-width="2.2"/>
<circle cx="980.7" cy="224.6" r="3" fill="#1baf7a" stroke="#fcfcfb" stroke-width="1.5"/>
<circle cx="981.8" cy="221.3" r="3" fill="#1baf7a" stroke="#fcfcfb" stroke-width="1.5"/>
<circle cx="982.8" cy="223.5" r="3" fill="#1baf7a" stroke="#fcfcfb" stroke-width="1.5"/>
<circle cx="983.8" cy="221.9" r="3" fill="#1baf7a" stroke="#fcfcfb" stroke-width="1.5"/>
<circle cx="984.9" cy="229.9" r="3" fill="#1baf7a" stroke="#fcfcfb" stroke-width="1.5"/>
<circle cx="985.9" cy="222.8" r="3" fill="#1baf7a" stroke="#fcfcfb" stroke-width="1.5"/>
<circle cx="1089.5" cy="357.9" r="3" fill="#1baf7a" stroke="#fcfcfb" stroke-width="1.5"/>
<circle cx="1090.5" cy="359.9" r="3" fill="#1baf7a" stroke="#fcfcfb" stroke-width="1.5"/>
<text x="1112" y="380.5" font-size="12" font-weight="600" fill="#1baf7a">126,49 €</text>
<line x1="1104.0" y1="74" x2="1104.0" y2="414" stroke="#8b5cd6" stroke-width="1.2" stroke-dasharray="4 3"/>
<circle cx="1104.0" cy="297.2" r="4.5" fill="#8b5cd6" stroke="#fcfcfb" stroke-width="1.8"/>
<text x="1096.0" y="108" text-anchor="end" font-size="12" font-weight="600" fill="#8b5cd6">décision 2022-11-30 · 182,44 €</text>
<text x="62" y="476" font-size="12.5" font-weight="600" fill="#0b0b0b">Les cinq critères</text>
<text x="62" y="500" font-size="12" fill="#52514e">1</text>
<text x="88" y="500" font-size="12" fill="#52514e">tendance longue — TEND_120</text>
<text x="362" y="500" font-size="12.5" font-weight="600" fill="#0b0b0b">-1</text>
<text x="1104" y="500" text-anchor="end" font-size="13" fill="#eb6834">↓</text>
<text x="62" y="521" font-size="12" fill="#52514e">2</text>
<text x="88" y="521" font-size="12" fill="#52514e">tendance courte — TEND_20</text>
<text x="362" y="521" font-size="12.5" font-weight="600" fill="#0b0b0b">-1</text>
<text x="1104" y="521" text-anchor="end" font-size="13" fill="#eb6834">↓</text>
<text x="62" y="542" font-size="12" fill="#52514e">3</text>
<text x="88" y="542" font-size="12" fill="#52514e">position dans l'encadrement actif</text>
<text x="362" y="542" font-size="12.5" font-weight="600" fill="#0b0b0b">60,2 % de la hauteur</text>
<text x="1104" y="542" text-anchor="end" font-size="13" fill="#52514e">–</text>
<text x="62" y="563" font-size="12" fill="#52514e">4</text>
<text x="88" y="563" font-size="12" fill="#52514e">alpha annualisé contre l'indice</text>
<text x="362" y="563" font-size="12.5" font-weight="600" fill="#0b0b0b">+6,29 %/an · IC95 [-25,36 ; +37,94] % · indiscernable de zéro</text>
<text x="1104" y="563" text-anchor="end" font-size="13" fill="#1baf7a">↑</text>
<text x="62" y="584" font-size="12" fill="#52514e">5</text>
<text x="88" y="584" font-size="12" fill="#52514e">momentum 12-1</text>
<text x="362" y="584" font-size="12.5" font-weight="600" fill="#0b0b0b">-28,78 %</text>
<text x="1104" y="584" text-anchor="end" font-size="13" fill="#eb6834">↓</text>
<rect x="62" y="626" width="1042" height="40" rx="4" fill="#5c6670" opacity="0.09"/>
<text x="76" y="652" font-size="17" font-weight="700" fill="#5c6670" font-family="Georgia,serif">ATTENTE</text>
<text x="182" y="652" font-size="12" fill="#52514e">veto 1 : moins de 3 épisodes de contact d'un côté</text>
<text x="62" y="684" font-size="11" fill="#52514e">Sortie d'une règle écrite à l'avance appliquée à des données passées. Ni prédiction, ni recommandation d'investissement.</text>
</svg>