<svg xmlns="http://www.w3.org/2000/svg" viewBox="0 0 1200 700" width="1200" height="700" font-family="ui-monospace,Consolas,monospace">
<rect width="1200" height="700" fill="#fcfcfb"/>
<text x="62" y="34" font-size="19" font-weight="600" fill="#0b0b0b" font-family="Georgia,serif">MC.PA — les cinq critères au 2022-04-29</text>
<text x="62" y="54" font-size="12" fill="#52514e">854 séances · 2019-01-02 → 2022-04-29 · fenêtre active 2021-11-11 → 2022-04-29 · ε = 10,05 €</text>
<rect x="958.6" y="74" width="145.4" height="340" fill="#f2efe4"/>
<line x1="62" y1="414.0" x2="1104" y2="414.0" stroke="#e1e0d9" stroke-width="1"/>
<text x="52" y="418.0" text-anchor="end" font-size="11" fill="#52514e">200</text>
<line x1="62" y1="400.4" x2="1104" y2="400.4" stroke="#e1e0d9" stroke-width="1"/>
<text x="52" y="404.4" text-anchor="end" font-size="11" fill="#52514e">220</text>
<line x1="62" y1="386.8" x2="1104" y2="386.8" stroke="#e1e0d9" stroke-width="1"/>
<text x="52" y="390.8" text-anchor="end" font-size="11" fill="#52514e">240</text>
<line x1="62" y1="373.2" x2="1104" y2="373.2" stroke="#e1e0d9" stroke-width="1"/>
<text x="52" y="377.2" text-anchor="end" font-size="11" fill="#52514e">260</text>
<line x1="62" y1="359.6" x2="1104" y2="359.6" stroke="#e1e0d9" stroke-width="1"/>
<text x="52" y="363.6" text-anchor="end" font-size="11" fill="#52514e">280</text>
<line x1="62" y1="346.0" x2="1104" y2="346.0" stroke="#e1e0d9" stroke-width="1"/>
<text x="52" y="350.0" text-anchor="end" font-size="11" fill="#52514e">300</text>
<line x1="62" y1="332.4" x2="1104" y2="332.4" stroke="#e1e0d9" stroke-width="1"/>
<text x="52" y="336.4" text-anchor="end" font-size="11" fill="#52514e">320</text>
<line x1="62" y1="318.8" x2="1104" y2="318.8" stroke="#e1e0d9" stroke-width="1"/>
<text x="52" y="322.8" text-anchor="end" font-size="11" fill="#52514e">340</text>
<line x1="62" y1="305.2" x2="1104" y2="305.2" stroke="#e1e0d9" stroke-width="1"/>
<text x="52" y="309.2" text-anchor="end" font-size="11" fill="#52514e">360</text>
<line x1="62" y1="291.6" x2="1104" y2="291.6" stroke="#e1e0d9" stroke-width="1"/>
<text x="52" y="295.6" text-anchor="end" font-size="11" fill="#52514e">380</text>
<line x1="62" y1="278.0" x2="1104" y2="278.0" stroke="#e1e0d9" stroke-width="1"/>
<text x="52" y="282.0" text-anchor="end" font-size="11" fill="#52514e">400</text>
<line x1="62" y1="264.4" x2="1104" y2="264.4" stroke="#e1e0d9" stroke-width="1"/>
<text x="52" y="268.4" text-anchor="end" font-size="11" fill="#52514e">420</text>
<line x1="62" y1="250.8" x2="1104" y2="250.8" stroke="#e1e0d9" stroke-width="1"/>
<text x="52" y="254.8" text-anchor="end" font-size="11" fill="#52514e">440</text>
<line x1="62" y1="237.2" x2="1104" y2="237.2" stroke="#e1e0d9" stroke-width="1"/>
<text x="52" y="241.2" text-anchor="end" font-size="11" fill="#52514e">460</text>
<line x1="62" y1="223.6" x2="1104" y2="223.6" stroke="#e1e0d9" stroke-width="1"/>
<text x="52" y="227.6" text-anchor="end" font-size="11" fill="#52514e">480</text>
<line x1="62" y1="210.0" x2="1104" y2="210.0" stroke="#e1e0d9" stroke-width="1"/>
<text x="52" y="214.0" text-anchor="end" font-size="11" fill="#52514e">500</text>
<line x1="62" y1="196.4" x2="1104" y2="196.4" stroke="#e1e0d9" stroke-width="1"/>
<text x="52" y="200.4" text-anchor="end" font-size="11" fill="#52514e">520</text>
<line x1="62" y1="182.8" x2="1104" y2="182.8" stroke="#e1e0d9" stroke-width="1"/>
<text x="52" y="186.8" text-anchor="end" font-size="11" fill="#52514e">540</text>
<line x1="62" y1="169.2" x2="1104" y2="169.2" stroke="#e1e0d9" stroke-width="1"/>
<text x="52" y="173.2" text-anchor="end" font-size="11" fill="#52514e">560</text>
<line x1="62" y1="155.6" x2="1104" y2="155.6" stroke="#e1e0d9" stroke-width="1"/>
<text x="52" y="159.6" text-anchor="end" font-size="11" fill="#52514e">580</text>
<line x1="62" y1="142.0" x2="1104" y2="142.0" stroke="#e1e0d9" stroke-width="1"/>
<text x="52" y="146.0" text-anchor="end" font-size="11" fill="#52514e">600</text>
<line x1="62" y1="128.4" x2="1104" y2="128.4" stroke="#e1e0d9" stroke-width="1"/>
<text x="52" y="132.4" text-anchor="end" font-size="11" fill="#52514e">620</text>
<line x1="62" y1="114.8" x2="1104" y2="114.8" stroke="#e1e0d9" stroke-width="1"/>
<text x="52" y="118.8" text-anchor="end" font-size="11" fill="#52514e">640</text>
<line x1="62" y1="101.2" x2="1104" y2="101.2" stroke="#e1e0d9" stroke-width="1"/>
<text x="52" y="105.2" text-anchor="end" font-size="11" fill="#52514e">660</text>
<line x1="62" y1="87.6" x2="1104" y2="87.6" stroke="#e1e0d9" stroke-width="1"/>
<text x="52" y="91.6" text-anchor="end" font-size="11" fill="#52514e">680</text>
<line x1="62" y1="74.0" x2="1104" y2="74.0" stroke="#e1e0d9" stroke-width="1"/>
<text x="52" y="78.0" text-anchor="end" font-size="11" fill="#52514e">700</text>
<line x1="374.7" y1="74" x2="374.7" y2="414" stroke="#e1e0d9" stroke-width="1"/>
<text x="374.7" y="434" text-anchor="middle" font-size="11" fill="#52514e">2020</text>
<line x1="688.7" y1="74" x2="688.7" y2="414" stroke="#e1e0d9" stroke-width="1"/>
<text x="688.7" y="434" text-anchor="middle" font-size="11" fill="#52514e">2021</text>
<line x1="1003.8" y1="74" x2="1003.8" y2="414" stroke="#e1e0d9" stroke-width="1"/>
<text x="1003.8" y="434" text-anchor="middle" font-size="11" fill="#52514e">2022</text>
<line x1="62" y1="414" x2="1104" y2="414" stroke="#c3c2b7" stroke-width="1"/>
<text x="964.6" y="90" font-size="11" fill="#52514e">fenêtre active · 120 séances</text>
<path d="M62.0 398.9L63.2 404.7L64.4 400.2L65.7 400.4L66.9 395.8L68.1 394.0L69.3 395.4L70.6 395.9L71.8 399.9L73.0 400.4L74.2 401.5L75.4 402.9L76.7 398.8L77.9 396.5L79.1 396.6L80.3 396.5L81.5 396.2L82.8 394.2L84.0 395.7L85.2 395.1L86.4 384.4L87.7 383.1L88.9 380.2L90.1 381.4L91.3 376.3L92.5 378.1L93.8 380.9L95.0 380.9L96.2 378.0L97.4 374.1L98.6 374.2L99.9 376.5L101.1 374.5L102.3 374.0L103.5 372.7L104.8 373.1L106.0 372.9L107.2 371.2L108.4 369.3L109.6 368.5L110.9 369.6L112.1 369.8L113.3 367.1L114.5 366.3L115.7 365.7L117.0 366.9L118.2 367.4L119.4 367.6L120.6 367.2L121.9 365.9L123.1 364.8L124.3 361.7L125.5 359.9L126.7 360.8L128.0 358.9L129.2 360.2L130.4 360.4L131.6 363.0L132.9 360.5L134.1 357.4L135.3 357.4L136.5 356.7L137.7 354.4L139.0 351.2L140.2 350.5L141.4 350.8L142.6 351.0L143.8 349.5L145.1 352.0L146.3 354.8L147.5 353.3L148.7 344.2L150.0 345.4L151.2 345.4L152.4 343.4L153.6 340.7L154.8 339.8L156.1 341.8L157.3 340.6L158.5 340.1L159.7 340.9L160.9 341.6L162.2 339.4L163.4 338.2L164.6 335.8L165.8 342.2L167.1 347.8L168.3 345.1L169.5 349.8L170.7 348.7L171.9 354.6L173.2 348.3L174.4 346.6L175.6 344.1L176.8 344.3L178.0 350.8L179.3 347.8L180.5 347.1L181.7 348.5L182.9 347.0L184.2 345.7L185.4 343.3L186.6 345.9L187.8 343.8L189.0 345.7L190.3 344.5L191.5 343.6L192.7 339.1L193.9 338.6L195.2 334.6L196.4 333.9L197.6 333.0L198.8 334.7L200.0 335.6L201.3 336.4L202.5 333.8L203.7 327.5L204.9 329.2L206.1 326.7L207.4 327.8L208.6 326.0L209.8 325.7L211.0 328.2L212.3 327.7L213.5 324.1L214.7 324.0L215.9 322.2L217.1 320.7L218.4 319.9L219.6 320.2L220.8 318.9L222.0 318.9L223.2 320.1L224.5 318.8L225.7 318.3L226.9 320.7L228.1 317.5L229.4 319.1L230.6 319.0L231.8 319.3L233.0 317.8L234.2 318.7L235.5 320.5L236.7 323.0L237.9 317.3L239.1 321.5L240.3 324.0L241.6 323.5L242.8 321.2L244.0 333.7L245.2 342.9L246.5 338.5L247.7 334.2L248.9 327.8L250.1 330.1L251.3 334.9L252.6 333.0L253.8 339.9L255.0 341.4L256.2 339.7L257.5 334.7L258.7 335.4L259.9 327.3L261.1 332.1L262.3 335.5L263.6 336.6L264.8 332.9L266.0 335.3L267.2 332.0L268.4 331.3L269.7 331.0L270.9 335.4L272.1 327.6L273.3 322.9L274.6 320.8L275.8 321.3L277.0 324.8L278.2 321.8L279.4 320.9L280.7 319.5L281.9 328.5L283.1 328.4L284.3 329.9L285.5 328.4L286.8 326.7L288.0 328.9L289.2 326.7L290.4 332.0L291.7 332.2L292.9 332.7L294.1 330.0L295.3 334.5L296.5 342.4L297.8 340.7L299.0 339.0L300.2 336.5L301.4 338.2L302.6 334.6L303.9 322.6L305.1 321.8L306.3 321.2L307.5 320.4L308.8 321.9L310.0 323.9L311.2 323.7L312.4 324.0L313.6 322.7L314.9 323.7L316.1 322.5L317.3 318.3L318.5 319.4L319.8 320.6L321.0 318.0L322.2 319.2L323.4 315.1L324.6 310.1L325.9 308.5L327.1 308.9L328.3 306.2L329.5 306.8L330.7 306.7L332.0 306.6L333.2 307.5L334.4 306.4L335.6 305.3L336.9 307.3L338.1 309.7L339.3 309.7L340.5 312.0L341.7 310.9L343.0 306.1L344.2 304.2L345.4 303.4L346.6 304.6L347.8 304.2L349.1 310.7L350.3 314.2L351.5 311.0L352.7 310.9L354.0 306.5L355.2 307.7L356.4 309.2L357.6 307.5L358.8 308.4L360.1 305.0L361.3 301.4L362.5 305.7L363.7 306.8L364.9 305.9L366.2 300.9L367.4 298.9L368.6 298.7L369.8 298.7L371.1 296.6L372.3 298.4L373.5 298.7L374.7 295.7L375.9 295.7L377.2 298.1L378.4 297.6L379.6 295.9L380.8 292.4L382.1 292.9L383.3 291.1L384.5 288.5L385.7 288.2L386.9 287.9L388.2 283.6L389.4 289.2L390.6 292.1L391.8 293.1L393.0 300.0L394.3 297.4L395.5 306.7L396.7 300.0L397.9 302.7L399.2 308.0L400.4 310.1L401.6 309.3L402.8 300.9L404.0 298.2L405.3 296.3L406.5 298.8L407.7 299.1L408.9 299.8L410.1 292.3L411.4 294.2L412.6 298.2L413.8 298.6L415.0 301.9L416.3 295.7L417.5 301.3L418.7 304.6L419.9 316.0L421.1 319.4L422.4 316.2L423.6 325.6L424.8 325.0L426.0 321.8L427.2 321.0L428.5 316.3L429.7 322.7L430.9 331.3L432.1 344.9L433.4 346.9L434.6 349.7L435.8 367.1L437.0 358.9L438.2 369.4L439.5 361.1L440.7 375.3L441.9 371.0L443.1 361.3L444.4 361.0L445.6 344.2L446.8 329.4L448.0 329.3L449.2 342.7L450.5 337.6L451.7 344.6L452.9 353.0L454.1 352.6L455.3 352.8L456.6 343.8L457.8 341.0L459.0 341.8L460.2 339.2L461.5 336.4L462.7 342.5L463.9 342.0L465.1 332.8L466.3 331.3L467.6 337.6L468.8 335.5L470.0 338.4L471.2 343.2L472.4 337.1L473.7 333.4L474.9 331.7L476.1 336.1L477.3 344.6L478.6 342.2L479.8 345.9L481.0 340.3L482.2 336.3L483.4 338.3L484.7 339.5L485.9 346.7L487.1 349.2L488.3 349.6L489.5 337.6L490.8 333.1L492.0 330.5L493.2 331.7L494.4 334.4L495.7 330.4L496.9 328.3L498.1 323.2L499.3 315.3L500.5 322.5L501.8 320.1L503.0 316.4L504.2 311.3L505.4 313.3L506.7 304.7L507.9 309.7L509.1 310.1L510.3 308.3L511.5 322.4L512.8 319.9L514.0 324.6L515.2 321.4L516.4 319.9L517.6 321.1L518.9 319.4L520.1 320.1L521.3 313.0L522.5 318.6L523.8 317.1L525.0 314.8L526.2 313.7L527.4 313.1L528.6 312.4L529.9 306.2L531.1 309.3L532.3 304.9L533.5 304.1L534.7 305.8L536.0 305.1L537.2 305.3L538.4 300.6L539.6 302.9L540.9 298.4L542.1 300.7L543.3 299.5L544.5 297.9L545.7 299.6L547.0 303.3L548.2 303.5L549.4 306.3L550.6 304.9L551.8 314.8L553.1 313.6L554.3 321.7L555.5 326.0L556.7 322.6L558.0 323.0L559.2 320.3L560.4 321.6L561.6 321.6L562.8 323.1L564.1 316.3L565.3 311.1L566.5 311.1L567.7 314.2L569.0 313.2L570.2 314.2L571.4 313.5L572.6 315.9L573.8 314.6L575.1 309.7L576.3 307.5L577.5 303.9L578.7 305.1L579.9 307.9L581.2 310.1L582.4 307.7L583.6 301.3L584.8 300.6L586.1 304.0L587.3 300.3L588.5 303.0L589.7 303.2L590.9 303.1L592.2 295.6L593.4 293.3L594.6 291.1L595.8 289.7L597.0 293.5L598.3 297.3L599.5 308.4L600.7 311.2L601.9 305.7L603.2 304.6L604.4 305.6L605.6 302.1L606.8 299.6L608.0 306.1L609.3 299.8L610.5 301.0L611.7 298.1L612.9 298.9L614.2 299.2L615.4 301.3L616.6 298.4L617.8 294.6L619.0 295.5L620.3 298.3L621.5 303.9L622.7 285.8L623.9 286.0L625.1 287.3L626.4 288.7L627.6 289.1L628.8 288.6L630.0 292.4L631.3 294.2L632.5 304.4L633.7 303.4L634.9 304.3L636.1 302.3L637.4 300.2L638.6 292.4L639.8 283.3L641.0 284.0L642.2 263.7L643.5 260.5L644.7 252.3L645.9 261.2L647.1 263.1L648.4 258.5L649.6 259.9L650.8 253.1L652.0 251.6L653.2 249.2L654.5 249.2L655.7 247.8L656.9 248.2L658.1 247.2L659.3 247.1L660.6 255.1L661.8 245.4L663.0 244.7L664.2 244.6L665.5 248.1L666.7 247.2L667.9 246.8L669.1 244.6L670.3 242.8L671.6 243.1L672.8 237.7L674.0 239.0L675.2 240.3L676.5 241.6L677.7 243.7L678.9 249.4L680.1 248.1L681.3 245.8L682.6 245.6L683.8 240.9L685.0 235.5L686.2 235.3L687.4 236.7L688.7 236.0L689.9 239.6L691.1 242.0L692.3 234.0L693.6 227.9L694.8 229.6L696.0 233.7L697.2 236.0L698.4 238.5L699.7 247.1L700.9 243.6L702.1 248.9L703.3 238.7L704.5 238.7L705.8 236.3L707.0 242.2L708.2 238.5L709.4 239.4L710.7 232.9L711.9 244.4L713.1 238.7L714.3 228.1L715.5 228.4L716.8 228.0L718.0 225.8L719.2 226.3L720.4 220.7L721.6 225.3L722.9 224.1L724.1 225.4L725.3 221.4L726.5 219.0L727.8 221.9L729.0 222.5L730.2 217.7L731.4 217.1L732.6 219.2L733.9 223.3L735.1 224.4L736.3 228.0L737.5 220.6L738.8 219.3L740.0 216.5L741.2 222.6L742.4 229.1L743.6 222.0L744.9 218.4L746.1 210.9L747.3 203.8L748.5 204.5L749.7 207.7L751.0 206.4L752.2 201.6L753.4 202.7L754.6 208.2L755.9 208.7L757.1 210.1L758.3 210.6L759.5 209.3L760.7 209.7L762.0 209.7L763.2 198.3L764.4 201.6L765.6 199.4L766.8 196.3L768.1 196.0L769.3 190.6L770.5 189.2L771.7 188.4L773.0 185.2L774.2 174.8L775.4 171.8L776.6 163.7L777.8 166.8L779.1 176.4L780.3 164.5L781.5 159.9L782.7 162.3L783.9 163.8L785.2 159.5L786.4 159.2L787.6 157.6L788.8 163.5L790.1 160.8L791.3 168.0L792.5 160.1L793.7 164.1L794.9 160.3L796.2 164.2L797.4 172.1L798.6 173.4L799.8 169.8L801.1 162.3L802.3 164.9L803.5 165.5L804.7 167.9L805.9 161.8L807.2 160.2L808.4 156.5L809.6 155.2L810.8 154.6L812.0 149.8L813.3 145.2L814.5 147.6L815.7 144.4L816.9 142.0L818.2 146.2L819.4 148.1L820.6 144.3L821.8 142.8L823.0 141.1L824.3 144.1L825.5 137.6L826.7 134.9L827.9 131.7L829.1 128.9L830.4 125.8L831.6 129.6L832.8 130.2L834.0 129.6L835.3 137.0L836.5 134.5L837.7 134.3L838.9 138.0L840.1 134.0L841.4 141.8L842.6 140.2L843.8 140.5L845.0 142.2L846.2 145.2L847.5 142.4L848.7 155.5L849.9 141.2L851.1 138.9L852.4 136.0L853.6 135.5L854.8 140.7L856.0 146.2L857.2 155.1L858.5 151.8L859.7 143.1L860.9 142.4L862.1 134.0L863.4 134.4L864.6 136.7L865.8 125.2L867.0 127.8L868.2 134.1L869.5 126.0L870.7 120.5L871.9 121.2L873.1 119.6L874.3 119.6L875.6 119.6L876.8 117.0L878.0 115.0L879.2 110.6L880.5 111.9L881.7 121.1L882.9 123.8L884.1 145.8L885.3 171.6L886.6 167.3L887.8 157.1L889.0 164.7L890.2 166.0L891.4 166.3L892.7 165.4L893.9 164.2L895.1 163.1L896.3 150.8L897.6 150.7L898.8 158.1L900.0 149.6L901.2 147.0L902.4 149.6L903.7 143.6L904.9 140.5L906.1 144.5L907.3 150.8L908.5 166.6L909.8 162.4L911.0 160.5L912.2 168.1L913.4 157.5L914.7 153.0L915.9 146.3L917.1 153.2L918.3 156.5L919.5 168.6L920.8 163.9L922.0 167.3L923.2 161.2L924.4 166.7L925.7 159.6L926.9 164.4L928.1 156.3L929.3 162.6L930.5 160.1L931.8 158.8L933.0 146.4L934.2 138.2L935.4 139.7L936.6 148.8L937.9 151.3L939.1 145.1L940.3 142.8L941.5 138.1L942.8 142.8L944.0 139.6L945.2 140.0L946.4 135.4L947.6 132.0L948.9 128.2L950.1 127.3L951.3 128.8L952.5 122.6L953.7 112.5L955.0 113.4L956.2 113.5L957.4 118.8L958.6 114.6L959.9 103.8L961.1 105.1L962.3 99.6L963.5 101.9L964.7 100.4L966.0 97.3L967.2 100.5L968.4 106.8L969.6 101.9L970.8 96.5L972.1 122.9L973.3 119.7L974.5 124.4L975.7 117.6L977.0 124.4L978.2 125.4L979.4 122.2L980.6 100.6L981.8 107.0L983.1 106.8L984.3 109.9L985.5 110.5L986.7 115.1L988.0 108.7L989.2 107.8L990.4 116.7L991.6 117.5L992.8 115.2L994.1 106.5L995.3 102.5L996.5 105.3L997.7 99.8L998.9 97.0L1000.2 98.8L1001.4 97.5L1002.6 99.4L1003.8 96.9L1005.1 88.8L1006.3 80.1L1007.5 99.3L1008.7 106.3L1009.9 114.4L1011.2 109.9L1012.4 110.7L1013.6 122.3L1014.8 131.3L1016.0 124.5L1017.3 132.8L1018.5 117.5L1019.7 113.7L1020.9 117.8L1022.2 139.2L1023.4 136.5L1024.6 126.3L1025.8 119.8L1027.0 105.9L1028.3 102.1L1029.5 96.1L1030.7 97.9L1031.9 108.8L1033.1 112.3L1034.4 106.1L1035.6 112.3L1036.8 105.8L1038.0 112.2L1039.3 125.4L1040.5 134.7L1041.7 119.8L1042.9 123.8L1044.1 125.9L1045.4 124.6L1046.6 133.3L1047.8 135.2L1049.0 137.3L1050.3 155.8L1051.5 136.8L1052.7 140.9L1053.9 162.1L1055.1 154.5L1056.4 167.3L1057.6 191.8L1058.8 198.0L1060.0 209.0L1061.2 176.5L1062.5 185.6L1063.7 181.2L1064.9 178.9L1066.1 184.3L1067.4 160.2L1068.6 159.6L1069.8 153.7L1071.0 157.5L1072.2 150.9L1073.5 163.0L1074.7 162.8L1075.9 162.0L1077.1 155.9L1078.3 133.6L1079.6 140.6L1080.8 147.5L1082.0 147.3L1083.2 138.5L1084.5 140.3L1085.7 155.6L1086.9 163.2L1088.1 158.4L1089.3 165.7L1090.6 158.9L1091.8 156.9L1093.0 153.3L1094.2 156.9L1095.4 151.9L1096.7 145.0L1097.9 153.5L1099.1 168.4L1100.3 169.2L1101.6 163.4L1102.8 163.0L1104.0 161.6" fill="none" stroke="#2a78d6" stroke-width="1.4" stroke-linejoin="round"/>
<line x1="1030.7" y1="92.2" x2="1104.0" y2="147.3" stroke="#eb6834" stroke-width="2.2"/>
<circle cx="1006.3" cy="79.8" r="3" fill="#eb6834" stroke="#fcfcfb" stroke-width="1.5"/>
<circle cx="1027.0" cy="95.1" r="3" fill="#eb6834" stroke="#fcfcfb" stroke-width="1.5"/>
<circle cx="1028.3" cy="96.8" r="3" fill="#eb6834" stroke="#fcfcfb" stroke-width="1.5"/>
<circle cx="1029.5" cy="95.3" r="3" fill="#eb6834" stroke="#fcfcfb" stroke-width="1.5"/>
<circle cx="1030.7" cy="92.2" r="3" fill="#eb6834" stroke="#fcfcfb" stroke-width="1.5"/>
<circle cx="1031.9" cy="95.6" r="3" fill="#eb6834" stroke="#fcfcfb" stroke-width="1.5"/>
<circle cx="1035.6" cy="101.5" r="3" fill="#eb6834" stroke="#fcfcfb" stroke-width="1.5"/>
<circle cx="1036.8" cy="103.3" r="3" fill="#eb6834" stroke="#fcfcfb" stroke-width="1.5"/>
<circle cx="1078.3" cy="131.5" r="3" fill="#eb6834" stroke="#fcfcfb" stroke-width="1.5"/>
<circle cx="1079.6" cy="134.9" r="3" fill="#eb6834" stroke="#fcfcfb" stroke-width="1.5"/>
<circle cx="1080.8" cy="135.7" r="3" fill="#eb6834" stroke="#fcfcfb" stroke-width="1.5"/>
<circle cx="1083.2" cy="138.1" r="3" fill="#eb6834" stroke="#fcfcfb" stroke-width="1.5"/>
<circle cx="1084.5" cy="136.2" r="3" fill="#eb6834" stroke="#fcfcfb" stroke-width="1.5"/>
<circle cx="1096.7" cy="141.8" r="3" fill="#eb6834" stroke="#fcfcfb" stroke-width="1.5"/>
<circle cx="1097.9" cy="147.1" r="3" fill="#eb6834" stroke="#fcfcfb" stroke-width="1.5"/>
<circle cx="1104.0" cy="153.7" r="3" fill="#eb6834" stroke="#fcfcfb" stroke-width="1.5"/>
<text x="1112" y="151.3" font-size="12" font-weight="600" fill="#eb6834">592,27 €</text>
<line x1="1058.8" y1="212.9" x2="1104.0" y2="169.5" stroke="#1baf7a" stroke-width="2.2"/>
<circle cx="1058.8" cy="212.9" r="3" fill="#1baf7a" stroke="#fcfcfb" stroke-width="1.5"/>
<circle cx="1060.0" cy="209.1" r="3" fill="#1baf7a" stroke="#fcfcfb" stroke-width="1.5"/>
<circle cx="1099.1" cy="172.8" r="3" fill="#1baf7a" stroke="#fcfcfb" stroke-width="1.5"/>
<circle cx="1100.3" cy="169.9" r="3" fill="#1baf7a" stroke="#fcfcfb" stroke-width="1.5"/>
<circle cx="1101.6" cy="171.9" r="3" fill="#1baf7a" stroke="#fcfcfb" stroke-width="1.5"/>
<circle cx="1102.8" cy="169.3" r="3" fill="#1baf7a" stroke="#fcfcfb" stroke-width="1.5"/>
<text x="1112" y="173.5" font-size="12" font-weight="600" fill="#1baf7a">559,54 €</text>
<line x1="1104.0" y1="74" x2="1104.0" y2="414" stroke="#8b5cd6" stroke-width="1.2" stroke-dasharray="4 3"/>
<circle cx="1104.0" cy="161.6" r="4.5" fill="#8b5cd6" stroke="#fcfcfb" stroke-width="1.8"/>
<text x="1096.0" y="108" text-anchor="end" font-size="12" font-weight="600" fill="#8b5cd6">décision 2022-04-29 · 571,21 €</text>
<text x="62" y="476" font-size="12.5" font-weight="600" fill="#0b0b0b">Les cinq critères</text>
<text x="62" y="500" font-size="12" fill="#52514e">1</text>
<text x="88" y="500" font-size="12" fill="#52514e">tendance longue — TEND_120</text>
<text x="362" y="500" font-size="12.5" font-weight="600" fill="#0b0b0b">-1</text>
<text x="1104" y="500" text-anchor="end" font-size="13" fill="#eb6834">↓</text>
<text x="62" y="521" font-size="12" fill="#52514e">2</text>
<text x="88" y="521" font-size="12" fill="#52514e">tendance courte — TEND_20</text>
<text x="362" y="521" font-size="12.5" font-weight="600" fill="#0b0b0b">-1</text>
<text x="1104" y="521" text-anchor="end" font-size="13" fill="#eb6834">↓</text>
<text x="62" y="542" font-size="12" fill="#52514e">3</text>
<text x="88" y="542" font-size="12" fill="#52514e">position dans l'encadrement actif</text>
<text x="362" y="542" font-size="12.5" font-weight="600" fill="#0b0b0b">35,7 % de la hauteur</text>
<text x="1104" y="542" text-anchor="end" font-size="13" fill="#52514e">–</text>
<text x="62" y="563" font-size="12" fill="#52514e">4</text>
<text x="88" y="563" font-size="12" fill="#52514e">alpha annualisé contre l'indice</text>
<text x="362" y="563" font-size="12.5" font-weight="600" fill="#0b0b0b">+12,63 %/an · IC95 [-6,92 ; +32,19] % · indiscernable de zéro</text>
<text x="1104" y="563" text-anchor="end" font-size="13" fill="#1baf7a">↑</text>
<text x="62" y="584" font-size="12" fill="#52514e">5</text>
<text x="88" y="584" font-size="12" fill="#52514e">momentum 12-1</text>
<text x="362" y="584" font-size="12.5" font-weight="600" fill="#0b0b0b">+7,95 %</text>
<text x="1104" y="584" text-anchor="end" font-size="13" fill="#1baf7a">↑</text>
<rect x="62" y="626" width="1042" height="40" rx="4" fill="#5c6670" opacity="0.09"/>
<text x="76" y="652" font-size="17" font-weight="700" fill="#5c6670" font-family="Georgia,serif">ATTENTE</text>
<text x="182" y="652" font-size="12" fill="#52514e">veto 1 : moins de 3 épisodes de contact d'un côté · veto 2 : canal se refermant en 10.7 séances</text>
<text x="62" y="684" font-size="11" fill="#52514e">Sortie d'une règle écrite à l'avance appliquée à des données passées. Ni prédiction, ni recommandation d'investissement.</text>
</svg>