<svg xmlns="http://www.w3.org/2000/svg" viewBox="0 0 1200 700" width="1200" height="700" font-family="ui-monospace,Consolas,monospace">
<rect width="1200" height="700" fill="#fcfcfb"/>
<text x="62" y="34" font-size="19" font-weight="600" fill="#0b0b0b" font-family="Georgia,serif">BN.PA — les cinq critères au 2022-08-31</text>
<text x="62" y="54" font-size="12" fill="#52514e">942 séances · 2019-01-02 → 2022-08-31 · fenêtre active 2022-03-15 → 2022-08-31 · ε = 0,42 €</text>
<rect x="972.2" y="74" width="131.8" height="340" fill="#f2efe4"/>
<line x1="62" y1="414.0" x2="1104" y2="414.0" stroke="#e1e0d9" stroke-width="1"/>
<text x="52" y="418.0" text-anchor="end" font-size="11" fill="#52514e">20</text>
<line x1="62" y1="300.7" x2="1104" y2="300.7" stroke="#e1e0d9" stroke-width="1"/>
<text x="52" y="304.7" text-anchor="end" font-size="11" fill="#52514e">40</text>
<line x1="62" y1="187.3" x2="1104" y2="187.3" stroke="#e1e0d9" stroke-width="1"/>
<text x="52" y="191.3" text-anchor="end" font-size="11" fill="#52514e">60</text>
<line x1="62" y1="74.0" x2="1104" y2="74.0" stroke="#e1e0d9" stroke-width="1"/>
<text x="52" y="78.0" text-anchor="end" font-size="11" fill="#52514e">80</text>
<line x1="345.5" y1="74" x2="345.5" y2="414" stroke="#e1e0d9" stroke-width="1"/>
<text x="345.5" y="434" text-anchor="middle" font-size="11" fill="#52514e">2020</text>
<line x1="630.1" y1="74" x2="630.1" y2="414" stroke="#e1e0d9" stroke-width="1"/>
<text x="630.1" y="434" text-anchor="middle" font-size="11" fill="#52514e">2021</text>
<line x1="915.8" y1="74" x2="915.8" y2="414" stroke="#e1e0d9" stroke-width="1"/>
<text x="915.8" y="434" text-anchor="middle" font-size="11" fill="#52514e">2022</text>
<line x1="62" y1="414" x2="1104" y2="414" stroke="#c3c2b7" stroke-width="1"/>
<text x="978.2" y="90" font-size="11" fill="#52514e">fenêtre active · 120 séances</text>
<path d="M62.0 261.4L63.1 261.2L64.2 257.3L65.3 262.3L66.4 260.2L67.5 259.1L68.6 258.2L69.8 256.8L70.9 258.4L72.0 256.1L73.1 259.5L74.2 257.6L75.3 255.7L76.4 253.1L77.5 253.7L78.6 254.2L79.7 253.7L80.8 255.2L81.9 257.4L83.0 254.9L84.1 252.2L85.3 250.7L86.4 248.1L87.5 247.4L88.6 244.6L89.7 245.0L90.8 246.8L91.9 246.7L93.0 245.0L94.1 245.0L95.2 243.6L96.3 243.0L97.4 241.1L98.5 240.2L99.6 238.1L100.8 235.9L101.9 231.9L103.0 233.3L104.1 233.8L105.2 232.6L106.3 237.9L107.4 238.3L108.5 240.3L109.6 236.6L110.7 235.7L111.8 233.8L112.9 231.0L114.0 231.4L115.2 231.4L116.3 232.8L117.4 231.3L118.5 228.0L119.6 226.5L120.7 226.1L121.8 227.7L122.9 226.9L124.0 224.9L125.1 232.4L126.2 234.8L127.3 232.0L128.4 233.1L129.5 230.5L130.7 228.0L131.8 229.6L132.9 228.9L134.0 227.0L135.1 229.3L136.2 231.5L137.3 228.7L138.4 228.7L139.5 226.7L140.6 226.1L141.7 225.0L142.8 222.4L143.9 223.7L145.0 224.1L146.2 220.6L147.3 217.6L148.4 217.5L149.5 216.0L150.6 215.5L151.7 215.3L152.8 213.3L153.9 214.4L155.0 211.6L156.1 211.7L157.2 214.6L158.3 213.9L159.4 216.4L160.6 214.8L161.7 215.4L162.8 214.2L163.9 213.7L165.0 208.8L166.1 208.6L167.2 211.5L168.3 208.6L169.4 209.4L170.5 210.4L171.6 205.9L172.7 205.2L173.8 203.8L174.9 207.7L176.1 205.7L177.2 207.7L178.3 200.7L179.4 205.8L180.5 206.3L181.6 206.9L182.7 203.8L183.8 202.3L184.9 203.3L186.0 203.2L187.1 202.0L188.2 202.7L189.3 201.2L190.5 195.6L191.6 194.7L192.7 192.1L193.8 192.5L194.9 190.7L196.0 190.3L197.1 192.9L198.2 192.9L199.3 193.8L200.4 195.0L201.5 192.0L202.6 188.7L203.7 188.5L204.8 191.8L206.0 190.5L207.1 191.0L208.2 191.1L209.3 188.3L210.4 187.8L211.5 187.7L212.6 188.5L213.7 189.3L214.8 188.3L215.9 190.2L217.0 189.8L218.1 189.2L219.2 190.1L220.3 181.7L221.5 176.3L222.6 174.8L223.7 177.1L224.8 176.3L225.9 173.0L227.0 182.4L228.1 186.1L229.2 187.4L230.3 186.5L231.4 178.4L232.5 179.7L233.6 179.1L234.7 178.8L235.9 174.6L237.0 174.7L238.1 168.7L239.2 166.8L240.3 169.4L241.4 166.5L242.5 170.6L243.6 174.3L244.7 170.5L245.8 166.5L246.9 166.8L248.0 162.7L249.1 162.6L250.2 162.2L251.4 161.2L252.5 160.2L253.6 161.1L254.7 161.5L255.8 169.2L256.9 171.4L258.0 168.0L259.1 165.4L260.2 171.4L261.3 171.2L262.4 166.9L263.5 168.4L264.6 168.4L265.7 167.2L266.9 166.9L268.0 165.2L269.1 174.6L270.2 169.7L271.3 167.5L272.4 165.5L273.5 171.8L274.6 180.6L275.7 179.2L276.8 177.2L277.9 174.5L279.0 177.7L280.1 173.8L281.3 175.4L282.4 172.7L283.5 171.3L284.6 167.8L285.7 173.3L286.8 175.5L287.9 205.2L289.0 204.5L290.1 201.1L291.2 198.7L292.3 196.0L293.4 196.2L294.5 197.4L295.6 194.4L296.8 192.4L297.9 194.4L299.0 196.1L300.1 197.7L301.2 198.3L302.3 193.4L303.4 197.5L304.5 196.5L305.6 195.8L306.7 195.7L307.8 190.8L308.9 192.0L310.0 190.8L311.1 191.9L312.3 193.2L313.4 195.3L314.5 196.7L315.6 194.8L316.7 193.4L317.8 192.2L318.9 193.2L320.0 193.3L321.1 192.8L322.2 199.4L323.3 201.4L324.4 199.6L325.5 199.3L326.7 193.9L327.8 196.0L328.9 197.4L330.0 195.0L331.1 198.9L332.2 198.8L333.3 196.5L334.4 200.2L335.5 196.0L336.6 196.1L337.7 192.2L338.8 192.7L339.9 194.5L341.0 194.5L342.2 193.8L343.3 196.0L344.4 196.5L345.5 196.1L346.6 193.3L347.7 192.6L348.8 195.8L349.9 202.5L351.0 201.9L352.1 202.3L353.2 203.8L354.3 207.7L355.4 203.0L356.6 198.3L357.7 197.4L358.8 199.5L359.9 199.2L361.0 201.0L362.1 199.1L363.2 195.6L364.3 201.0L365.4 199.7L366.5 201.2L367.6 202.8L368.7 203.2L369.8 201.6L370.9 198.8L372.1 199.8L373.2 197.1L374.3 198.5L375.4 198.6L376.5 197.7L377.6 198.6L378.7 205.4L379.8 202.7L380.9 203.8L382.0 205.2L383.1 206.8L384.2 207.4L385.3 209.5L386.4 225.0L387.6 224.8L388.7 223.2L389.8 234.5L390.9 242.1L392.0 244.8L393.1 246.2L394.2 245.6L395.3 246.4L396.4 254.4L397.5 267.1L398.6 270.8L399.7 268.5L400.8 290.5L402.0 286.7L403.1 285.8L404.2 267.1L405.3 259.6L406.4 253.9L407.5 264.4L408.6 277.3L409.7 281.5L410.8 276.1L411.9 265.2L413.0 277.9L414.1 271.6L415.2 264.8L416.3 274.1L417.5 273.0L418.6 274.3L419.7 265.3L420.8 265.9L421.9 272.1L423.0 265.0L424.1 253.1L425.2 249.8L426.3 249.6L427.4 242.5L428.5 238.1L429.6 246.0L430.7 248.0L431.8 250.0L433.0 247.5L434.1 240.5L435.2 248.2L436.3 247.3L437.4 244.1L438.5 252.0L439.6 252.1L440.7 252.0L441.8 245.5L442.9 240.5L444.0 240.5L445.1 245.2L446.2 248.2L447.4 256.7L448.5 255.8L449.6 244.8L450.7 250.6L451.8 249.2L452.9 253.1L454.0 253.4L455.1 251.0L456.2 251.8L457.3 252.0L458.4 248.9L459.5 251.7L460.6 250.2L461.7 249.2L462.9 248.3L464.0 246.8L465.1 243.0L466.2 240.1L467.3 240.7L468.4 242.6L469.5 250.4L470.6 253.2L471.7 254.7L472.8 244.3L473.9 243.8L475.0 243.0L476.1 233.3L477.2 242.5L478.4 238.6L479.5 243.6L480.6 243.8L481.7 243.3L482.8 249.3L483.9 251.7L485.0 254.8L486.1 247.5L487.2 250.6L488.3 251.7L489.4 253.1L490.5 255.6L491.6 259.8L492.8 255.9L493.9 252.3L495.0 249.3L496.1 246.7L497.2 248.1L498.3 248.7L499.4 245.7L500.5 245.3L501.6 248.8L502.7 244.7L503.8 245.8L504.9 250.0L506.0 250.3L507.1 248.0L508.3 263.0L509.4 265.3L510.5 264.0L511.6 266.9L512.7 267.5L513.8 269.7L514.9 274.3L516.0 273.3L517.1 269.7L518.2 266.4L519.3 265.3L520.4 267.2L521.5 265.5L522.7 265.6L523.8 264.5L524.9 267.6L526.0 268.0L527.1 266.3L528.2 266.4L529.3 266.6L530.4 266.6L531.5 271.4L532.6 271.9L533.7 274.6L534.8 269.3L535.9 264.6L537.0 266.9L538.2 264.1L539.3 265.8L540.4 260.4L541.5 263.1L542.6 261.7L543.7 261.5L544.8 260.4L545.9 258.0L547.0 259.9L548.1 261.5L549.2 270.2L550.3 272.6L551.4 272.9L552.5 275.2L553.7 274.4L554.8 269.3L555.9 272.0L557.0 271.4L558.1 271.2L559.2 272.1L560.3 271.2L561.4 271.7L562.5 274.2L563.6 272.4L564.7 269.9L565.8 269.1L566.9 272.4L568.1 270.1L569.2 271.5L570.3 280.3L571.4 279.6L572.5 286.0L573.6 292.8L574.7 294.0L575.8 290.4L576.9 293.1L578.0 299.7L579.1 310.0L580.2 310.3L581.3 307.6L582.4 305.8L583.6 298.0L584.7 295.2L585.8 294.2L586.9 297.2L588.0 283.0L589.1 276.7L590.2 274.2L591.3 276.2L592.4 275.3L593.5 273.2L594.6 275.0L595.7 274.2L596.8 282.1L597.9 284.0L599.1 291.7L600.2 288.0L601.3 285.3L602.4 282.3L603.5 282.7L604.6 277.7L605.7 282.5L606.8 285.4L607.9 289.4L609.0 288.2L610.1 287.1L611.2 285.4L612.3 286.8L613.5 284.5L614.6 284.3L615.7 284.2L616.8 284.0L617.9 276.5L619.0 277.1L620.1 276.7L621.2 284.8L622.3 278.8L623.4 278.0L624.5 278.7L625.6 274.8L626.7 274.5L627.8 275.9L629.0 278.1L630.1 275.2L631.2 274.2L632.3 272.0L633.4 276.0L634.5 281.6L635.6 283.1L636.7 283.5L637.8 278.5L638.9 282.0L640.0 278.8L641.1 273.7L642.2 266.9L643.3 271.1L644.5 272.0L645.6 274.4L646.7 273.8L647.8 270.6L648.9 271.5L650.0 271.1L651.1 272.6L652.2 269.6L653.3 273.9L654.4 275.8L655.5 276.6L656.6 280.1L657.7 280.9L658.9 279.5L660.0 280.0L661.1 274.5L662.2 277.4L663.3 271.3L664.4 273.6L665.5 268.3L666.6 269.7L667.7 264.0L668.8 261.2L669.9 260.2L671.0 258.7L672.1 256.2L673.2 265.6L674.4 262.0L675.5 267.2L676.6 270.9L677.7 267.1L678.8 264.6L679.9 262.8L681.0 264.9L682.1 259.8L683.2 261.6L684.3 257.9L685.4 250.1L686.5 250.5L687.6 250.0L688.8 254.4L689.9 253.8L691.0 253.8L692.1 252.7L693.2 257.1L694.3 256.3L695.4 255.7L696.5 253.4L697.6 254.8L698.7 256.2L699.8 257.5L700.9 255.1L702.0 250.9L703.1 248.8L704.3 251.1L705.4 251.4L706.5 252.1L707.6 254.7L708.7 253.0L709.8 251.2L710.9 247.6L712.0 252.7L713.1 254.9L714.2 250.7L715.3 254.6L716.4 257.7L717.5 258.9L718.6 257.4L719.8 253.2L720.9 255.6L722.0 251.8L723.1 253.8L724.2 253.3L725.3 253.9L726.4 253.1L727.5 251.4L728.6 259.0L729.7 255.3L730.8 250.8L731.9 251.5L733.0 248.0L734.2 249.1L735.3 247.8L736.4 240.3L737.5 237.2L738.6 237.3L739.7 238.2L740.8 243.4L741.9 248.2L743.0 247.2L744.1 247.9L745.2 248.3L746.3 247.6L747.4 247.1L748.5 245.2L749.7 245.2L750.8 243.0L751.9 245.5L753.0 244.3L754.1 242.8L755.2 242.3L756.3 243.1L757.4 242.9L758.5 243.7L759.6 246.7L760.7 252.9L761.8 254.2L762.9 254.2L764.0 253.8L765.2 250.0L766.3 243.9L767.4 242.5L768.5 242.8L769.6 238.3L770.7 238.8L771.8 239.8L772.9 237.8L774.0 237.4L775.1 243.2L776.2 242.4L777.3 241.3L778.4 241.1L779.6 241.4L780.7 245.3L781.8 243.8L782.9 247.2L784.0 246.9L785.1 244.7L786.2 250.7L787.3 248.5L788.4 249.3L789.5 253.2L790.6 253.3L791.7 235.7L792.8 229.9L793.9 224.1L795.1 222.4L796.2 226.5L797.3 225.4L798.4 226.8L799.5 226.8L800.6 224.0L801.7 222.1L802.8 220.6L803.9 218.3L805.0 215.8L806.1 216.5L807.2 220.8L808.3 221.5L809.4 222.5L810.6 223.0L811.7 224.9L812.8 228.5L813.9 229.5L815.0 229.4L816.1 230.3L817.2 230.8L818.3 231.1L819.4 234.5L820.5 232.5L821.6 231.3L822.7 238.7L823.8 241.7L825.0 239.3L826.1 242.1L827.2 240.6L828.3 239.3L829.4 242.6L830.5 241.9L831.6 243.0L832.7 245.0L833.8 242.0L834.9 240.4L836.0 241.2L837.1 242.6L838.2 243.2L839.3 246.2L840.5 242.9L841.6 244.3L842.7 248.8L843.8 248.9L844.9 250.5L846.0 251.6L847.1 249.8L848.2 254.7L849.3 255.9L850.4 256.5L851.5 253.1L852.6 248.8L853.7 251.6L854.9 252.6L856.0 260.8L857.1 256.1L858.2 257.9L859.3 258.3L860.4 258.0L861.5 257.9L862.6 259.6L863.7 258.8L864.8 257.3L865.9 254.4L867.0 253.1L868.1 252.8L869.2 252.9L870.4 252.5L871.5 255.8L872.6 252.9L873.7 249.7L874.8 250.2L875.9 251.2L877.0 251.1L878.1 256.1L879.2 255.4L880.3 255.9L881.4 258.0L882.5 257.4L883.6 255.2L884.7 258.1L885.9 258.5L887.0 267.0L888.1 267.0L889.2 278.2L890.3 276.4L891.4 271.8L892.5 273.9L893.6 272.9L894.7 274.0L895.8 273.2L896.9 273.3L898.0 273.2L899.1 274.7L900.3 272.6L901.4 272.9L902.5 267.9L903.6 265.6L904.7 272.7L905.8 272.0L906.9 271.0L908.0 269.5L909.1 270.6L910.2 265.9L911.3 265.0L912.4 264.9L913.5 264.1L914.6 265.7L915.8 263.8L916.9 256.0L918.0 256.5L919.1 256.5L920.2 257.7L921.3 254.6L922.4 254.2L923.5 255.1L924.6 251.8L925.7 250.0L926.8 249.5L927.9 250.9L929.0 253.4L930.1 251.7L931.3 250.1L932.4 258.7L933.5 259.0L934.6 258.0L935.7 255.1L936.8 262.7L937.9 262.5L939.0 263.5L940.1 259.7L941.2 263.3L942.3 265.0L943.4 261.3L944.5 260.7L945.7 261.8L946.8 264.3L947.9 261.9L949.0 264.9L950.1 263.3L951.2 262.0L952.3 261.6L953.4 259.5L954.5 262.1L955.6 265.8L956.7 255.6L957.8 268.3L958.9 258.9L960.0 267.1L961.2 270.5L962.3 275.0L963.4 281.8L964.5 291.7L965.6 297.1L966.7 299.8L967.8 282.4L968.9 285.4L970.0 282.7L971.1 272.9L972.2 274.5L973.3 272.9L974.4 271.0L975.5 269.4L976.7 277.4L977.8 276.6L978.9 279.5L980.0 280.5L981.1 283.1L982.2 282.9L983.3 278.9L984.4 283.8L985.5 287.6L986.6 286.4L987.7 286.8L988.8 285.0L989.9 284.6L991.1 280.0L992.2 277.0L993.3 276.6L994.4 278.5L995.5 281.1L996.6 274.9L997.7 275.1L998.8 260.6L999.9 262.1L1001.0 262.7L1002.1 258.1L1003.2 257.0L1004.3 260.0L1005.4 254.6L1006.6 251.1L1007.7 252.7L1008.8 252.2L1009.9 257.2L1011.0 258.9L1012.1 258.5L1013.2 259.5L1014.3 255.1L1015.4 254.5L1016.5 255.3L1017.6 248.5L1018.7 246.3L1019.8 249.6L1021.0 251.8L1022.1 258.7L1023.2 254.9L1024.3 253.5L1025.4 257.3L1026.5 254.5L1027.6 256.5L1028.7 255.5L1029.8 255.3L1030.9 255.6L1032.0 255.9L1033.1 247.8L1034.2 249.8L1035.3 249.8L1036.5 251.8L1037.6 259.3L1038.7 262.5L1039.8 265.9L1040.9 263.1L1042.0 270.5L1043.1 272.3L1044.2 277.8L1045.3 269.7L1046.4 269.4L1047.5 270.9L1048.6 273.5L1049.7 276.3L1050.8 266.2L1052.0 265.8L1053.1 264.7L1054.2 264.0L1055.3 262.9L1056.4 262.7L1057.5 260.6L1058.6 264.5L1059.7 261.3L1060.8 262.9L1061.9 261.3L1063.0 262.1L1064.1 256.7L1065.2 260.8L1066.4 264.0L1067.5 260.8L1068.6 261.6L1069.7 256.2L1070.8 259.1L1071.9 260.1L1073.0 260.5L1074.1 257.9L1075.2 254.4L1076.3 257.0L1077.4 262.2L1078.5 260.2L1079.6 260.6L1080.7 259.2L1081.9 259.1L1083.0 258.7L1084.1 260.9L1085.2 261.2L1086.3 261.4L1087.4 261.4L1088.5 261.5L1089.6 265.7L1090.7 260.8L1091.8 258.5L1092.9 258.8L1094.0 260.8L1095.1 261.0L1096.2 263.1L1097.4 264.4L1098.5 261.7L1099.6 262.3L1100.7 267.1L1101.8 267.3L1102.9 268.3L1104.0 266.6" fill="none" stroke="#2a78d6" stroke-width="1.4" stroke-linejoin="round"/>
<line x1="1033.1" y1="244.3" x2="1104.0" y2="245.3" stroke="#eb6834" stroke-width="2.2"/>
<circle cx="1018.7" cy="246.3" r="3" fill="#eb6834" stroke="#fcfcfb" stroke-width="1.5"/>
<circle cx="1019.8" cy="245.4" r="3" fill="#eb6834" stroke="#fcfcfb" stroke-width="1.5"/>
<circle cx="1033.1" cy="244.3" r="3" fill="#eb6834" stroke="#fcfcfb" stroke-width="1.5"/>
<circle cx="1034.2" cy="244.8" r="3" fill="#eb6834" stroke="#fcfcfb" stroke-width="1.5"/>
<circle cx="1076.3" cy="244.9" r="3" fill="#eb6834" stroke="#fcfcfb" stroke-width="1.5"/>
<text x="1112" y="249.3" font-size="12" font-weight="600" fill="#eb6834">49,77 €</text>
<line x1="988.8" y1="290.3" x2="1104.0" y2="270.9" stroke="#1baf7a" stroke-width="2.2"/>
<circle cx="988.8" cy="290.3" r="3" fill="#1baf7a" stroke="#fcfcfb" stroke-width="1.5"/>
<circle cx="989.9" cy="288.7" r="3" fill="#1baf7a" stroke="#fcfcfb" stroke-width="1.5"/>
<circle cx="1044.2" cy="280.4" r="3" fill="#1baf7a" stroke="#fcfcfb" stroke-width="1.5"/>
<circle cx="1049.7" cy="278.0" r="3" fill="#1baf7a" stroke="#fcfcfb" stroke-width="1.5"/>
<circle cx="1100.7" cy="269.1" r="3" fill="#1baf7a" stroke="#fcfcfb" stroke-width="1.5"/>
<circle cx="1101.8" cy="269.8" r="3" fill="#1baf7a" stroke="#fcfcfb" stroke-width="1.5"/>
<circle cx="1102.9" cy="269.6" r="3" fill="#1baf7a" stroke="#fcfcfb" stroke-width="1.5"/>
<circle cx="1104.0" cy="270.9" r="3" fill="#1baf7a" stroke="#fcfcfb" stroke-width="1.5"/>
<text x="1112" y="274.9" font-size="12" font-weight="600" fill="#1baf7a">45,25 €</text>
<line x1="1104.0" y1="74" x2="1104.0" y2="414" stroke="#8b5cd6" stroke-width="1.2" stroke-dasharray="4 3"/>
<circle cx="1104.0" cy="266.6" r="4.5" fill="#8b5cd6" stroke="#fcfcfb" stroke-width="1.8"/>
<text x="1096.0" y="108" text-anchor="end" font-size="12" font-weight="600" fill="#8b5cd6">décision 2022-08-31 · 46,01 €</text>
<text x="62" y="476" font-size="12.5" font-weight="600" fill="#0b0b0b">Les cinq critères</text>
<text x="62" y="500" font-size="12" fill="#52514e">1</text>
<text x="88" y="500" font-size="12" fill="#52514e">tendance longue — TEND_120</text>
<text x="362" y="500" font-size="12.5" font-weight="600" fill="#0b0b0b">+1</text>
<text x="1104" y="500" text-anchor="end" font-size="13" fill="#1baf7a">↑</text>
<text x="62" y="521" font-size="12" fill="#52514e">2</text>
<text x="88" y="521" font-size="12" fill="#52514e">tendance courte — TEND_20</text>
<text x="362" y="521" font-size="12.5" font-weight="600" fill="#0b0b0b">-1</text>
<text x="1104" y="521" text-anchor="end" font-size="13" fill="#eb6834">↓</text>
<text x="62" y="542" font-size="12" fill="#52514e">3</text>
<text x="88" y="542" font-size="12" fill="#52514e">position dans l'encadrement actif</text>
<text x="362" y="542" font-size="12.5" font-weight="600" fill="#0b0b0b">16,7 % de la hauteur</text>
<text x="1104" y="542" text-anchor="end" font-size="13" fill="#1baf7a">↑</text>
<text x="62" y="563" font-size="12" fill="#52514e">4</text>
<text x="88" y="563" font-size="12" fill="#52514e">alpha annualisé contre l'indice</text>
<text x="362" y="563" font-size="12.5" font-weight="600" fill="#0b0b0b">-6,28 %/an · IC95 [-25,88 ; +13,32] % · indiscernable de zéro</text>
<text x="1104" y="563" text-anchor="end" font-size="13" fill="#1baf7a">↑</text>
<text x="62" y="584" font-size="12" fill="#52514e">5</text>
<text x="88" y="584" font-size="12" fill="#52514e">momentum 12-1</text>
<text x="362" y="584" font-size="12.5" font-weight="600" fill="#0b0b0b">-6,93 %</text>
<text x="1104" y="584" text-anchor="end" font-size="13" fill="#eb6834">↓</text>
<rect x="62" y="626" width="1042" height="40" rx="4" fill="#5c6670" opacity="0.09"/>
<text x="76" y="652" font-size="17" font-weight="700" fill="#5c6670" font-family="Georgia,serif">ATTENTE</text>
<text x="182" y="652" font-size="12" fill="#52514e">veto 3 : critères 1 et 2 de signes opposés</text>
<text x="62" y="684" font-size="11" fill="#52514e">Sortie d'une règle écrite à l'avance appliquée à des données passées. Ni prédiction, ni recommandation d'investissement.</text>
</svg>