<svg xmlns="http://www.w3.org/2000/svg" width="900" height="470" viewBox="0 0 900 470" font-family="Segoe UI, Helvetica, sans-serif">
<rect width="900" height="470" fill="#ffffff"/>
<text x="72" y="26" font-size="15" font-weight="600" fill="#1a1a1a">Vinci (DG.PA) &#8212; canal au 2022-11-30</text>
<text x="72" y="46" font-size="11.5" fill="#444444">rang 17 &#183; TAUX_120 +0,061 %/s&#233;ance &#183; cl&#244;ture 83,37 &#8364;, +0,96 s &#183; TAUX_20 +0,220 %/s&#233;ance</text>
<text x="72" y="63" font-size="11.5" fill="#444444">bande 120 &#177; 1,0 s : 76,40 &#8211; 83,50 &#8364; &#183; enveloppe 20 : 3,77 s, 2,4 % &#183; verdict : <tspan font-weight="600" fill="#1a1a1a">dans la bande</tspan></text>
<line x1="72" y1="381.2" x2="878" y2="381.2" stroke="#eeeeee" stroke-width="1"/>
<text x="64" y="385.2" font-size="10.5" fill="#666666" text-anchor="end">70</text>
<line x1="72" y1="287.4" x2="878" y2="287.4" stroke="#eeeeee" stroke-width="1"/>
<text x="64" y="291.4" font-size="10.5" fill="#666666" text-anchor="end">75</text>
<line x1="72" y1="193.7" x2="878" y2="193.7" stroke="#eeeeee" stroke-width="1"/>
<text x="64" y="197.7" font-size="10.5" fill="#666666" text-anchor="end">80</text>
<line x1="72" y1="100.0" x2="878" y2="100.0" stroke="#eeeeee" stroke-width="1"/>
<text x="64" y="104.0" font-size="10.5" fill="#666666" text-anchor="end">85</text>
<polygon points="72.0,232.7 878.0,128.0 878.0,261.2 72.0,365.8" fill="#1f5f8b" fill-opacity="0.08"/>
<line x1="72.0" y1="232.7" x2="878.0" y2="128.0" stroke="#1f5f8b" stroke-width="1.3" stroke-dasharray="6 4"/>
<line x1="72.0" y1="365.8" x2="878.0" y2="261.2" stroke="#1f5f8b" stroke-width="1.3" stroke-dasharray="6 4"/>
<line x1="72.0" y1="299.2" x2="878.0" y2="194.6" stroke="#1f5f8b" stroke-width="1.3"/>
<line x1="749.3" y1="160.3" x2="878.0" y2="95.9" stroke="#b35c1e" stroke-width="1.5" stroke-dasharray="4 3"/>
<line x1="749.3" y1="196.5" x2="878.0" y2="132.1" stroke="#b35c1e" stroke-width="1.5" stroke-dasharray="4 3"/>
<line x1="749.3" y1="185.7" x2="878.0" y2="121.2" stroke="#b35c1e" stroke-width="1.5"/>
<polyline points="72.0,336.8 78.8,332.8 85.5,331.9 92.3,341.5 99.1,323.2 105.9,329.8 112.6,289.0 119.4,314.2 126.2,290.2 133.0,308.6 139.7,333.6 146.5,319.4 153.3,310.6 160.1,366.6 166.8,338.4 173.6,311.0 180.4,282.1 187.1,311.8 193.9,290.9 200.7,306.4 207.5,329.3 214.2,288.6 221.0,287.7 227.8,252.8 234.6,270.2 241.3,269.0 248.1,259.8 254.9,252.1 261.6,254.2 268.4,255.3 275.2,244.3 282.0,198.9 288.7,224.9 295.5,230.2 302.3,213.7 309.1,203.3 315.8,222.5 322.6,209.7 329.4,201.7 336.2,197.1 342.9,183.2 349.7,188.8 356.5,181.2 363.2,169.6 370.0,186.2 376.8,184.0 383.6,192.3 390.3,216.6 397.1,210.7 403.9,206.2 410.7,203.8 417.4,221.7 424.2,224.5 431.0,220.9 437.7,216.9 444.5,225.6 451.3,192.6 458.1,205.7 464.8,200.6 471.6,196.8 478.4,197.6 485.2,184.1 491.9,151.6 498.7,167.2 505.5,176.6 512.3,175.2 519.0,225.7 525.8,222.7 532.6,246.5 539.3,257.7 546.1,290.6 552.9,344.8 559.7,356.5 566.4,342.4 573.2,345.3 580.0,371.2 586.8,362.3 593.5,355.7 600.3,328.8 607.1,353.8 613.8,388.0 620.6,394.1 627.4,364.3 634.2,348.7 640.9,365.0 647.7,350.3 654.5,343.5 661.3,313.1 668.0,304.8 674.8,308.2 681.6,313.6 688.4,314.7 695.1,274.9 701.9,249.9 708.7,220.5 715.4,216.3 722.2,200.5 729.0,202.1 735.8,185.2 742.5,184.6 749.3,191.8 756.1,156.9 762.9,189.1 769.6,184.3 776.4,182.0 783.2,158.7 789.9,168.0 796.7,170.7 803.5,152.9 810.3,153.2 817.0,162.6 823.8,149.7 830.6,136.1 837.4,136.6 844.1,136.4 850.9,127.7 857.7,123.1 864.5,127.8 871.2,131.1 878.0,130.6" fill="none" stroke="#333333" stroke-width="1.3"/>
<circle cx="817.0" cy="162.6" r="4.5" fill="none" stroke="#b35c1e" stroke-width="1.5"/>
<circle cx="756.1" cy="156.9" r="4.5" fill="none" stroke="#b35c1e" stroke-width="1.5"/>
<circle cx="878.0" cy="130.6" r="4" fill="#1a1a1a"/>
<text x="72" y="436" font-size="10.5" fill="#666666">2022-06-16</text>
<text x="878" y="436" font-size="10.5" fill="#666666" text-anchor="end">2022-11-30</text>
<text x="72" y="458" font-size="10.5" fill="#444444"><tspan fill="#333333">&#9472;</tspan> cl&#244;tures &#183; <tspan fill="#1f5f8b">&#9472;</tspan> droite sur 120 s&#233;ances et bande &#177; 1,0 s &#183; <tspan fill="#b35c1e">&#9472;</tspan> droite sur 20 s&#233;ances et enveloppe des r&#233;sidus, les deux cl&#244;tures qui la fixent cercl&#233;es</text>
</svg>
