<svg xmlns="http://www.w3.org/2000/svg" viewBox="0 0 1200 700" width="1200" height="700" font-family="ui-monospace,Consolas,monospace">
<rect width="1200" height="700" fill="#fcfcfb"/>
<text x="62" y="34" font-size="19" font-weight="600" fill="#0b0b0b" font-family="Georgia,serif">VIE.PA — les cinq critères au 2022-09-30</text>
<text x="62" y="54" font-size="12" fill="#52514e">964 séances · 2019-01-02 → 2022-09-30 · fenêtre active 2022-04-14 → 2022-09-30 · ε = 0,37 €</text>
<rect x="975.2" y="74" width="128.8" height="340" fill="#f2efe4"/>
<line x1="62" y1="414.0" x2="1104" y2="414.0" stroke="#e1e0d9" stroke-width="1"/>
<text x="52" y="418.0" text-anchor="end" font-size="11" fill="#52514e">0</text>
<line x1="62" y1="244.0" x2="1104" y2="244.0" stroke="#e1e0d9" stroke-width="1"/>
<text x="52" y="248.0" text-anchor="end" font-size="11" fill="#52514e">20</text>
<line x1="62" y1="74.0" x2="1104" y2="74.0" stroke="#e1e0d9" stroke-width="1"/>
<text x="52" y="78.0" text-anchor="end" font-size="11" fill="#52514e">40</text>
<line x1="339.0" y1="74" x2="339.0" y2="414" stroke="#e1e0d9" stroke-width="1"/>
<text x="339.0" y="434" text-anchor="middle" font-size="11" fill="#52514e">2020</text>
<line x1="617.1" y1="74" x2="617.1" y2="414" stroke="#e1e0d9" stroke-width="1"/>
<text x="617.1" y="434" text-anchor="middle" font-size="11" fill="#52514e">2021</text>
<line x1="896.2" y1="74" x2="896.2" y2="414" stroke="#e1e0d9" stroke-width="1"/>
<text x="896.2" y="434" text-anchor="middle" font-size="11" fill="#52514e">2022</text>
<line x1="62" y1="414" x2="1104" y2="414" stroke="#c3c2b7" stroke-width="1"/>
<text x="981.2" y="90" font-size="11" fill="#52514e">fenêtre active · 120 séances</text>
<path d="M62.0 307.3L63.1 308.0L64.2 306.8L65.2 307.5L66.3 306.3L67.4 305.5L68.5 304.6L69.6 307.8L70.7 307.8L71.7 307.3L72.8 306.2L73.9 306.1L75.0 304.1L76.1 305.1L77.1 305.6L78.2 305.5L79.3 305.0L80.4 305.7L81.5 306.0L82.6 304.7L83.6 305.2L84.7 303.6L85.8 302.3L86.9 304.2L88.0 302.1L89.1 303.7L90.1 301.2L91.2 302.7L92.3 301.2L93.4 301.0L94.5 300.7L95.5 301.0L96.6 299.6L97.7 299.2L98.8 298.3L99.9 297.6L101.0 295.6L102.0 296.5L103.1 295.3L104.2 294.6L105.3 297.8L106.4 298.3L107.4 297.9L108.5 297.5L109.6 297.3L110.7 297.0L111.8 295.9L112.9 296.0L113.9 295.2L115.0 294.5L116.1 294.5L117.2 293.9L118.3 293.8L119.3 293.4L120.4 292.4L121.5 294.2L122.6 293.1L123.7 294.3L124.8 295.6L125.8 295.0L126.9 294.7L128.0 295.2L129.1 294.5L130.2 294.0L131.3 293.9L132.3 291.8L133.4 291.8L134.5 291.4L135.6 292.3L136.7 292.1L137.7 290.9L138.8 290.8L139.9 291.3L141.0 290.1L142.1 287.7L143.2 286.6L144.2 287.8L145.3 286.8L146.4 287.4L147.5 286.9L148.6 286.8L149.6 287.1L150.7 287.7L151.8 286.5L152.9 285.5L154.0 286.8L155.1 284.5L156.1 287.7L157.2 290.1L158.3 289.9L159.4 289.2L160.5 288.7L161.5 287.9L162.6 287.7L163.7 288.0L164.8 288.4L165.9 286.9L167.0 286.4L168.0 288.0L169.1 286.1L170.2 284.3L171.3 283.8L172.4 285.2L173.4 285.3L174.5 284.1L175.6 282.7L176.7 284.5L177.8 282.3L178.9 282.0L179.9 280.1L181.0 280.5L182.1 281.6L183.2 281.3L184.3 281.3L185.4 280.7L186.4 280.7L187.5 278.6L188.6 279.6L189.7 279.5L190.8 279.0L191.8 278.2L192.9 278.5L194.0 279.5L195.1 280.7L196.2 279.6L197.3 278.8L198.3 275.9L199.4 273.9L200.5 274.4L201.6 274.9L202.7 274.8L203.7 273.3L204.8 273.2L205.9 272.7L207.0 272.3L208.1 272.4L209.2 272.3L210.2 271.7L211.3 271.0L212.4 270.4L213.5 270.0L214.6 271.2L215.6 273.2L216.7 272.2L217.8 269.9L218.9 268.9L220.0 272.2L221.1 270.7L222.1 274.3L223.2 274.7L224.3 278.5L225.4 277.8L226.5 277.3L227.6 275.5L228.6 276.6L229.7 277.0L230.8 275.4L231.9 278.5L233.0 277.0L234.0 276.4L235.1 275.8L236.2 278.0L237.3 277.1L238.4 278.5L239.5 278.8L240.5 278.8L241.6 278.8L242.7 278.4L243.8 278.8L244.9 277.6L245.9 276.5L247.0 276.0L248.1 271.4L249.2 273.3L250.3 274.3L251.4 276.1L252.4 276.4L253.5 279.1L254.6 277.3L255.7 278.2L256.8 276.8L257.8 275.6L258.9 273.8L260.0 272.3L261.1 272.5L262.2 273.1L263.3 271.6L264.3 272.7L265.4 269.9L266.5 269.7L267.6 268.1L268.7 269.0L269.8 273.9L270.8 274.6L271.9 273.5L273.0 271.5L274.1 272.7L275.2 271.9L276.2 270.4L277.3 268.5L278.4 267.9L279.5 266.9L280.6 267.2L281.7 269.4L282.7 269.2L283.8 270.2L284.9 269.9L286.0 270.4L287.1 269.3L288.1 269.7L289.2 270.4L290.3 269.9L291.4 268.6L292.5 266.2L293.6 267.1L294.6 268.2L295.7 270.0L296.8 268.9L297.9 271.4L299.0 271.0L300.0 272.2L301.1 271.2L302.2 269.9L303.3 270.2L304.4 270.4L305.5 268.2L306.5 270.6L307.6 270.0L308.7 270.9L309.8 270.7L310.9 270.6L312.0 268.9L313.0 268.2L314.1 267.6L315.2 268.2L316.3 271.3L317.4 271.7L318.4 271.5L319.5 271.1L320.6 270.0L321.7 268.8L322.8 268.8L323.9 266.4L324.9 269.5L326.0 267.8L327.1 266.6L328.2 264.5L329.3 265.2L330.3 264.6L331.4 264.5L332.5 264.6L333.6 264.0L334.7 264.0L335.8 264.3L336.8 263.6L337.9 265.3L339.0 263.9L340.1 263.2L341.2 264.0L342.2 265.3L343.3 266.1L344.4 265.0L345.5 261.3L346.6 261.1L347.7 258.6L348.7 256.3L349.8 254.9L350.9 253.1L352.0 251.5L353.1 250.3L354.1 248.7L355.2 247.8L356.3 244.7L357.4 247.3L358.5 246.5L359.6 246.0L360.6 247.4L361.7 246.7L362.8 246.7L363.9 246.6L365.0 245.8L366.1 243.9L367.1 243.7L368.2 243.7L369.3 241.1L370.4 241.2L371.5 238.6L372.5 238.1L373.6 237.4L374.7 235.6L375.8 232.7L376.9 232.9L378.0 234.2L379.0 239.0L380.1 241.4L381.2 240.8L382.3 245.8L383.4 251.4L384.4 248.5L385.5 243.6L386.6 236.0L387.7 236.6L388.8 244.9L389.9 259.3L390.9 266.9L392.0 272.0L393.1 294.8L394.2 299.4L395.3 304.0L396.3 306.9L397.4 305.4L398.5 300.5L399.6 299.7L400.7 307.6L401.8 299.0L402.8 299.5L403.9 292.8L405.0 295.3L406.1 290.3L407.2 291.8L408.3 299.3L409.3 297.4L410.4 302.9L411.5 299.9L412.6 296.3L413.7 296.9L414.7 293.4L415.8 294.8L416.9 295.5L418.0 294.4L419.1 289.3L420.2 295.8L421.2 303.8L422.3 301.2L423.4 296.5L424.5 296.7L425.6 291.2L426.6 292.7L427.7 287.6L428.8 291.8L429.9 297.4L431.0 291.9L432.1 295.0L433.1 294.0L434.2 290.8L435.3 293.5L436.4 291.9L437.5 296.4L438.5 297.3L439.6 296.9L440.7 291.0L441.8 296.4L442.9 296.4L444.0 296.7L445.0 297.3L446.1 295.4L447.2 290.2L448.3 287.5L449.4 285.2L450.5 287.2L451.5 285.9L452.6 280.2L453.7 274.8L454.8 276.3L455.9 272.5L456.9 273.9L458.0 276.2L459.1 274.5L460.2 282.9L461.3 282.3L462.4 282.9L463.4 278.9L464.5 279.4L465.6 280.5L466.7 280.7L467.8 281.7L468.8 281.3L469.9 285.2L471.0 284.8L472.1 285.0L473.2 283.7L474.3 285.1L475.3 286.5L476.4 284.2L477.5 284.2L478.6 284.2L479.7 284.9L480.7 285.1L481.8 289.9L482.9 288.1L484.0 288.1L485.1 290.0L486.2 287.1L487.2 287.9L488.3 289.4L489.4 288.7L490.5 287.0L491.6 284.4L492.7 285.7L493.7 287.5L494.8 287.6L495.9 285.7L497.0 283.5L498.1 288.2L499.1 289.6L500.2 290.1L501.3 289.9L502.4 290.1L503.5 290.2L504.6 289.0L505.6 287.1L506.7 285.0L507.8 282.6L508.9 282.4L510.0 285.2L511.0 286.7L512.1 290.5L513.2 290.0L514.3 294.0L515.4 292.8L516.5 288.5L517.5 289.7L518.6 289.7L519.7 291.3L520.8 291.0L521.9 283.9L522.9 287.9L524.0 284.0L525.1 285.1L526.2 288.1L527.3 285.6L528.4 287.5L529.4 285.3L530.5 288.3L531.6 289.7L532.7 289.6L533.8 291.6L534.8 292.3L535.9 292.4L537.0 293.2L538.1 295.8L539.2 296.3L540.3 295.6L541.3 298.4L542.4 295.9L543.5 296.3L544.6 296.0L545.7 295.4L546.8 294.6L547.8 294.0L548.9 295.2L550.0 292.9L551.1 293.1L552.2 292.1L553.2 293.3L554.3 293.2L555.4 296.8L556.5 298.5L557.6 300.7L558.7 299.9L559.7 300.7L560.8 302.6L561.9 304.3L563.0 303.7L564.1 302.3L565.1 303.7L566.2 306.4L567.3 309.9L568.4 311.9L569.5 311.0L570.6 307.1L571.6 304.6L572.7 302.3L573.8 302.9L574.9 306.2L576.0 297.3L577.0 292.5L578.1 291.3L579.2 294.2L580.3 294.5L581.4 291.1L582.5 291.8L583.5 292.8L584.6 295.8L585.7 293.4L586.8 294.4L587.9 292.9L589.0 288.5L590.0 287.1L591.1 286.5L592.2 290.0L593.3 285.7L594.4 284.2L595.4 285.1L596.5 283.8L597.6 286.6L598.7 286.0L599.8 284.9L600.9 287.6L601.9 288.5L603.0 287.7L604.1 289.2L605.2 286.7L606.3 286.6L607.3 287.0L608.4 289.0L609.5 287.2L610.6 284.7L611.7 286.1L612.8 283.3L613.8 283.1L614.9 284.3L616.0 285.1L617.1 284.4L618.2 285.1L619.2 281.0L620.3 279.0L621.4 272.3L622.5 274.3L623.6 268.5L624.7 268.5L625.7 266.0L626.8 265.0L627.9 267.7L629.0 264.9L630.1 263.4L631.2 267.2L632.2 270.1L633.3 270.0L634.4 271.2L635.5 273.1L636.6 269.7L637.6 271.9L638.7 270.6L639.8 268.1L640.9 265.7L642.0 265.8L643.1 266.5L644.1 268.7L645.2 270.3L646.3 270.5L647.4 268.5L648.5 269.2L649.5 267.9L650.6 269.1L651.7 268.7L652.8 270.4L653.9 269.9L655.0 267.2L656.0 265.3L657.1 263.6L658.2 263.6L659.3 270.1L660.4 269.6L661.4 268.5L662.5 270.8L663.6 270.5L664.7 267.8L665.8 266.9L666.9 266.1L667.9 265.1L669.0 264.7L670.1 263.0L671.2 264.0L672.3 265.8L673.3 268.4L674.4 270.4L675.5 269.2L676.6 272.3L677.7 274.3L678.8 275.0L679.8 274.5L680.9 275.5L682.0 273.9L683.1 275.2L684.2 273.2L685.3 270.2L686.3 270.2L687.4 270.3L688.5 270.8L689.6 268.7L690.7 254.6L691.7 256.5L692.8 257.2L693.9 256.5L695.0 253.9L696.1 253.7L697.2 254.5L698.2 255.8L699.3 251.5L700.4 248.3L701.5 246.6L702.6 243.9L703.6 242.2L704.7 243.0L705.8 243.4L706.9 244.1L708.0 246.6L709.1 248.2L710.1 245.9L711.2 244.6L712.3 243.9L713.4 247.7L714.5 245.8L715.5 244.5L716.6 241.3L717.7 245.3L718.8 244.0L719.9 246.0L721.0 243.8L722.0 243.2L723.1 243.1L724.2 243.1L725.3 242.9L726.4 244.6L727.5 242.8L728.5 244.0L729.6 242.4L730.7 243.1L731.8 243.9L732.9 244.0L733.9 242.3L735.0 244.2L736.1 243.2L737.2 244.3L738.3 242.3L739.4 241.0L740.4 241.7L741.5 242.6L742.6 244.2L743.7 247.9L744.8 247.8L745.8 246.7L746.9 249.3L748.0 246.3L749.1 247.5L750.2 248.3L751.3 246.0L752.3 245.5L753.4 242.4L754.5 240.8L755.6 240.8L756.7 240.7L757.7 240.3L758.8 243.4L759.9 242.3L761.0 240.0L762.1 240.8L763.2 241.3L764.2 244.0L765.3 241.5L766.4 245.3L767.5 246.0L768.6 242.6L769.7 241.2L770.7 240.5L771.8 238.6L772.9 237.6L774.0 234.4L775.1 229.2L776.1 230.9L777.2 229.5L778.3 230.5L779.4 232.9L780.5 232.1L781.6 232.3L782.6 232.4L783.7 231.7L784.8 230.7L785.9 229.6L787.0 227.1L788.0 227.4L789.1 227.8L790.2 224.8L791.3 224.0L792.4 223.4L793.5 223.1L794.5 221.7L795.6 221.9L796.7 224.6L797.8 224.9L798.9 223.8L799.9 221.8L801.0 216.4L802.1 216.8L803.2 218.2L804.3 220.1L805.4 219.7L806.4 219.7L807.5 222.1L808.6 223.8L809.7 222.6L810.8 221.7L811.9 222.1L812.9 220.5L814.0 226.3L815.1 227.7L816.2 229.8L817.3 229.7L818.3 223.9L819.4 227.9L820.5 227.9L821.6 234.2L822.7 233.7L823.8 232.4L824.8 231.5L825.9 229.8L827.0 226.9L828.1 231.7L829.2 230.9L830.2 235.2L831.3 232.6L832.4 230.7L833.5 229.0L834.6 228.9L835.7 228.0L836.7 228.3L837.8 223.5L838.9 219.9L840.0 222.0L841.1 218.5L842.1 220.3L843.2 219.3L844.3 220.5L845.4 216.7L846.5 220.3L847.6 217.1L848.6 215.9L849.7 215.1L850.8 206.7L851.9 210.9L853.0 211.2L854.0 211.0L855.1 210.3L856.2 211.4L857.3 209.5L858.4 208.3L859.5 209.5L860.5 208.4L861.6 208.7L862.7 214.9L863.8 215.2L864.9 215.8L866.0 214.0L867.0 213.3L868.1 222.8L869.2 220.2L870.3 219.1L871.4 214.1L872.4 218.9L873.5 215.9L874.6 212.0L875.7 210.1L876.8 207.4L877.9 202.9L878.9 203.1L880.0 201.1L881.1 202.9L882.2 198.1L883.3 196.8L884.3 197.6L885.4 199.2L886.5 197.4L887.6 196.0L888.7 196.2L889.8 195.5L890.8 196.4L891.9 190.4L893.0 192.8L894.1 193.9L895.2 192.6L896.2 190.3L897.3 190.0L898.4 193.1L899.5 192.2L900.6 186.4L901.7 191.9L902.7 190.4L903.8 193.2L904.9 190.7L906.0 192.4L907.1 190.4L908.2 192.8L909.2 192.5L910.3 187.6L911.4 195.1L912.5 202.9L913.6 201.4L914.6 195.8L915.7 192.5L916.8 196.8L917.9 194.9L919.0 192.7L920.1 188.0L921.1 188.5L922.2 192.0L923.3 194.1L924.4 190.2L925.5 189.1L926.5 188.1L927.6 191.5L928.7 197.8L929.8 192.7L930.9 192.6L932.0 192.2L933.0 190.6L934.1 196.1L935.2 198.2L936.3 196.2L937.4 209.9L938.4 196.2L939.5 199.8L940.6 209.4L941.7 219.6L942.8 224.9L943.9 240.6L944.9 244.0L946.0 237.7L947.1 216.1L948.2 226.0L949.3 226.9L950.4 221.7L951.4 219.4L952.5 213.6L953.6 208.0L954.7 209.8L955.8 217.5L956.8 212.5L957.9 216.4L959.0 222.1L960.1 223.8L961.2 221.5L962.3 213.5L963.3 214.3L964.4 214.4L965.5 211.4L966.6 208.8L967.7 219.7L968.7 223.0L969.8 227.9L970.9 225.8L972.0 224.0L973.1 224.6L974.2 222.6L975.2 222.0L976.3 226.4L977.4 219.3L978.5 214.6L979.6 217.5L980.6 217.3L981.7 220.9L982.8 226.6L983.9 223.2L985.0 222.6L986.1 228.1L987.1 225.6L988.2 227.4L989.3 227.4L990.4 233.8L991.5 240.6L992.6 238.6L993.6 231.1L994.7 242.2L995.8 235.7L996.9 236.8L998.0 234.0L999.0 236.8L1000.1 241.2L1001.2 236.5L1002.3 234.4L1003.4 238.5L1004.5 234.8L1005.5 232.4L1006.6 231.8L1007.7 227.7L1008.8 235.3L1009.9 236.1L1010.9 234.1L1012.0 231.8L1013.1 231.4L1014.2 228.8L1015.3 231.3L1016.4 232.4L1017.4 240.7L1018.5 247.8L1019.6 252.7L1020.7 249.2L1021.8 255.1L1022.8 254.5L1023.9 253.0L1025.0 252.2L1026.1 251.9L1027.2 256.5L1028.3 249.9L1029.3 246.4L1030.4 244.4L1031.5 248.6L1032.6 254.2L1033.7 251.9L1034.7 252.5L1035.8 254.8L1036.9 253.1L1038.0 247.0L1039.1 246.5L1040.2 247.9L1041.2 246.5L1042.3 247.4L1043.4 252.6L1044.5 250.5L1045.6 246.1L1046.7 240.3L1047.7 243.7L1048.8 244.1L1049.9 243.7L1051.0 243.1L1052.1 248.9L1053.1 246.3L1054.2 242.6L1055.3 239.4L1056.4 239.6L1057.5 237.1L1058.6 242.0L1059.6 240.4L1060.7 242.1L1061.8 238.6L1062.9 237.8L1064.0 237.9L1065.0 233.0L1066.1 230.8L1067.2 234.5L1068.3 233.6L1069.4 237.1L1070.5 239.5L1071.5 241.1L1072.6 247.2L1073.7 248.5L1074.8 250.2L1075.9 249.1L1076.9 252.0L1078.0 253.5L1079.1 254.0L1080.2 254.3L1081.3 257.5L1082.4 254.9L1083.4 256.8L1084.5 257.6L1085.6 256.5L1086.7 254.4L1087.8 251.4L1088.9 248.0L1089.9 248.4L1091.0 252.8L1092.1 254.5L1093.2 259.1L1094.3 259.1L1095.3 263.7L1096.4 259.2L1097.5 260.9L1098.6 265.6L1099.7 270.5L1100.8 274.8L1101.8 273.6L1102.9 276.6L1104.0 272.8" fill="none" stroke="#2a78d6" stroke-width="1.4" stroke-linejoin="round"/>
<line x1="978.5" y1="211.2" x2="1104.0" y2="233.9" stroke="#eb6834" stroke-width="2.2"/>
<circle cx="978.5" cy="211.2" r="3" fill="#eb6834" stroke="#fcfcfb" stroke-width="1.5"/>
<circle cx="980.6" cy="214.4" r="3" fill="#eb6834" stroke="#fcfcfb" stroke-width="1.5"/>
<circle cx="1066.1" cy="227.0" r="3" fill="#eb6834" stroke="#fcfcfb" stroke-width="1.5"/>
<circle cx="1067.2" cy="229.5" r="3" fill="#eb6834" stroke="#fcfcfb" stroke-width="1.5"/>
<text x="1112" y="237.9" font-size="12" font-weight="600" fill="#eb6834">21,19 €</text>
<line x1="1021.8" y1="259.5" x2="1104.0" y2="279.4" stroke="#1baf7a" stroke-width="2.2"/>
<circle cx="1021.8" cy="259.5" r="3" fill="#1baf7a" stroke="#fcfcfb" stroke-width="1.5"/>
<circle cx="1100.8" cy="275.4" r="3" fill="#1baf7a" stroke="#fcfcfb" stroke-width="1.5"/>
<circle cx="1101.8" cy="278.6" r="3" fill="#1baf7a" stroke="#fcfcfb" stroke-width="1.5"/>
<circle cx="1102.9" cy="279.1" r="3" fill="#1baf7a" stroke="#fcfcfb" stroke-width="1.5"/>
<text x="1112" y="283.4" font-size="12" font-weight="600" fill="#1baf7a">15,84 €</text>
<line x1="1104.0" y1="74" x2="1104.0" y2="414" stroke="#8b5cd6" stroke-width="1.2" stroke-dasharray="4 3"/>
<circle cx="1104.0" cy="272.8" r="4.5" fill="#8b5cd6" stroke="#fcfcfb" stroke-width="1.8"/>
<text x="1096.0" y="108" text-anchor="end" font-size="12" font-weight="600" fill="#8b5cd6">décision 2022-09-30 · 16,62 €</text>
<text x="62" y="476" font-size="12.5" font-weight="600" fill="#0b0b0b">Les cinq critères</text>
<text x="62" y="500" font-size="12" fill="#52514e">1</text>
<text x="88" y="500" font-size="12" fill="#52514e">tendance longue — TEND_120</text>
<text x="362" y="500" font-size="12.5" font-weight="600" fill="#0b0b0b">-1</text>
<text x="1104" y="500" text-anchor="end" font-size="13" fill="#eb6834">↓</text>
<text x="62" y="521" font-size="12" fill="#52514e">2</text>
<text x="88" y="521" font-size="12" fill="#52514e">tendance courte — TEND_20</text>
<text x="362" y="521" font-size="12.5" font-weight="600" fill="#0b0b0b">-1</text>
<text x="1104" y="521" text-anchor="end" font-size="13" fill="#eb6834">↓</text>
<text x="62" y="542" font-size="12" fill="#52514e">3</text>
<text x="88" y="542" font-size="12" fill="#52514e">position dans l'encadrement actif</text>
<text x="362" y="542" font-size="12.5" font-weight="600" fill="#0b0b0b">14,5 % de la hauteur</text>
<text x="1104" y="542" text-anchor="end" font-size="13" fill="#1baf7a">↑</text>
<text x="62" y="563" font-size="12" fill="#52514e">4</text>
<text x="88" y="563" font-size="12" fill="#52514e">alpha annualisé contre l'indice</text>
<text x="362" y="563" font-size="12.5" font-weight="600" fill="#0b0b0b">-0,77 %/an · IC95 [-23,16 ; +21,61] % · indiscernable de zéro</text>
<text x="1104" y="563" text-anchor="end" font-size="13" fill="#1baf7a">↑</text>
<text x="62" y="584" font-size="12" fill="#52514e">5</text>
<text x="88" y="584" font-size="12" fill="#52514e">momentum 12-1</text>
<text x="362" y="584" font-size="12.5" font-weight="600" fill="#0b0b0b">-13,73 %</text>
<text x="1104" y="584" text-anchor="end" font-size="13" fill="#eb6834">↓</text>
<rect x="62" y="626" width="1042" height="40" rx="4" fill="#5c6670" opacity="0.09"/>
<text x="76" y="652" font-size="17" font-weight="700" fill="#5c6670" font-family="Georgia,serif">ATTENTE</text>
<text x="182" y="652" font-size="12" fill="#52514e">veto 1 : moins de 3 épisodes de contact d'un côté</text>
<text x="62" y="684" font-size="11" fill="#52514e">Sortie d'une règle écrite à l'avance appliquée à des données passées. Ni prédiction, ni recommandation d'investissement.</text>
</svg>